<?xml version="1.0" encoding="UTF-8"?>
<svg id="Layer_2" data-name="Layer 2" xmlns="http://www.w3.org/2000/svg" viewBox="0 0 66.12 41.33">
  <g id="Layer_2-2" data-name="Layer 2">
    <g>
      <path d="M27.2,18.68c1.37-.69,2.41-1.46,3.12-2.29,1.26-1.5,1.89-3.48,1.89-5.94s-.62-4.44-1.87-6.15C28.25,1.5,24.73.07,19.75,0H0v40.3h18.41c2.07,0,4-.18,5.77-.54,1.78-.37,3.31-1.04,4.62-2.02,1.16-.86,2.12-1.92,2.89-3.17,1.21-1.89,1.82-4.04,1.82-6.43s-.53-4.29-1.59-5.91c-1.07-1.62-2.64-2.81-4.72-3.56ZM8.15,7h8.89c1.95,0,3.57.21,4.83.63,1.46.61,2.19,1.84,2.19,3.73,0,1.69-.56,2.87-1.66,3.54-1.11.67-2.55,1-4.32,1h-9.93V7ZM22.21,32.6c-.98.48-2.37.71-4.14.71h-9.92v-10.75h10.06c1.75.01,3.12.24,4.09.68,1.74.79,2.6,2.22,2.6,4.33,0,2.48-.89,4.15-2.69,5.03Z"/>
      <rect x="42.25" y="1.88" width="17.51" height="5.02"/>
      <path d="M65.84,21.68c-.36-2.33-1.17-4.39-2.41-6.16-1.37-2.01-3.1-3.48-5.22-4.41-2.1-.93-4.47-1.4-7.11-1.4-4.43,0-8.02,1.38-10.8,4.13-2.77,2.76-4.16,6.72-4.16,11.89,0,5.51,1.53,9.49,4.62,11.93,3.07,2.45,6.62,3.67,10.64,3.67,4.87,0,8.66-1.45,11.37-4.34,1.73-1.83,2.71-3.62,2.93-5.39h-8.07c-.47.87-1.01,1.55-1.63,2.05-1.12.91-2.59,1.36-4.38,1.36s-3.15-.38-4.36-1.12c-1.99-1.2-3.03-3.3-3.17-6.29h22.01c.03-2.57-.05-4.55-.26-5.92ZM44.29,22.45c.29-1.94.99-3.48,2.11-4.61,1.12-1.13,2.69-1.7,4.72-1.71,1.86,0,3.42.53,4.69,1.6,1.25,1.08,1.96,2.64,2.1,4.72h-13.62Z"/>
    </g>
  </g>
</svg>