<?xml version="1.0" encoding="UTF-8"?>
<svg id="Layer_2" data-name="Layer 2" xmlns="http://www.w3.org/2000/svg" viewBox="0 0 64.55 64.55">
  <defs>
    <style>
      .cls-1 {
        fill: #fff;
      }
    </style>
  </defs>
  <g id="Layer_2-2" data-name="Layer 2">
    <g>
      <path d="M64.55,52.45c0,6.68-5.42,12.1-12.1,12.1H12.1c-6.68,0-12.1-5.42-12.1-12.1V12.1C0,5.42,5.42,0,12.1,0h40.35c6.68,0,12.1,5.42,12.1,12.1v40.35Z"/>
      <path class="cls-1" d="M28.24,51.19c0,.7-.56,1.26-1.26,1.26h-13.62c-.7,0-1.26-.56-1.26-1.26v-3.53c0-.7.56-1.26,1.26-1.26h13.62c.7,0,1.26.56,1.26,1.26v3.53ZM51.19,22.19c.7,0,1.26-.56,1.26-1.26v-7.57c0-.7-.56-1.26-1.26-1.26H13.36c-.7,0-1.26.56-1.26,1.26v27.74c0,.7.56,1.26,1.26,1.26h13.62c.7,0,1.26-.56,1.26-1.26v-3.53c0-.7.56-1.26,1.26-1.26h21.69c.7,0,1.26-.56,1.26-1.26v-7.56c0-.7-.56-1.26-1.26-1.26h-21.69c-.7,0-1.26-.56-1.26-1.26v-1.51c0-.7.56-1.26,1.26-1.26h21.69Z"/>
    </g>
  </g>
</svg>