<?xml version="1.0" encoding="UTF-8"?>
<svg id="Layer_2" data-name="Layer 2" xmlns="http://www.w3.org/2000/svg" viewBox="0 0 64.55 64.55">
  <g id="Layer_2-2" data-name="Layer 2">
    <g>
      <path d="M48.41,0H16.14C7.26,0,0,7.26,0,16.14v32.28c0,8.87,7.26,16.14,16.14,16.14h32.28c8.88,0,16.14-7.27,16.14-16.14V16.14c0-8.88-7.26-16.14-16.14-16.14ZM59.17,48.42c0,5.93-4.82,10.76-10.76,10.76H16.14c-5.93,0-10.76-4.83-10.76-10.76V16.14c0-5.93,4.83-10.76,10.76-10.76h32.28c5.93,0,10.76,4.83,10.76,10.76v32.28h0Z"/>
      <circle cx="49.85" cy="14.53" r="4.06"/>
      <path d="M32.28,15.88c-8.96,0-16.22,7.26-16.22,16.22s7.26,16.23,16.22,16.23,16.22-7.27,16.22-16.23-7.26-16.22-16.22-16.22ZM32.28,42.92c-5.97,0-10.82-4.84-10.82-10.82s4.84-10.82,10.82-10.82,10.82,4.84,10.82,10.82-4.84,10.82-10.82,10.82Z"/>
    </g>
  </g>
</svg>