<?xml version="1.0" encoding="UTF-8"?>
<svg xmlns="http://www.w3.org/2000/svg" xmlns:xlink="http://www.w3.org/1999/xlink" viewBox="0 0 1680.17 816.5">
  <defs>
    <style>
      .cls-1 {
        mask: url(#mask-5);
      }

      .cls-2 {
        mask: url(#mask-13);
      }

      .cls-3 {
        mask: url(#mask-1);
      }

      .cls-4 {
        mask: url(#mask-10);
      }

      .cls-5 {
        mask: url(#mask-6);
      }

      .cls-6 {
        mask: url(#mask-7);
      }

      .cls-7 {
        filter: url(#luminosity-noclip-5);
      }

      .cls-8 {
        mask: url(#mask);
      }

      .cls-9 {
        mix-blend-mode: soft-light;
      }

      .cls-10 {
        fill: url(#Degradado_sin_nombre_2);
      }

      .cls-10, .cls-11, .cls-12, .cls-13, .cls-14, .cls-15, .cls-16 {
        mix-blend-mode: multiply;
      }

      .cls-17 {
        mask: url(#mask-8);
      }

      .cls-11 {
        fill: url(#Degradado_sin_nombre_3);
      }

      .cls-18 {
        filter: url(#luminosity-noclip-11);
      }

      .cls-19 {
        mask: url(#mask-2);
      }

      .cls-20 {
        filter: url(#luminosity-noclip-3);
      }

      .cls-21 {
        mask: url(#mask-9);
      }

      .cls-22 {
        clip-path: url(#clippath-1);
      }

      .cls-23 {
        opacity: .36;
      }

      .cls-24 {
        isolation: isolate;
      }

      .cls-25 {
        opacity: .15;
      }

      .cls-26 {
        filter: url(#luminosity-noclip-13);
      }

      .cls-27 {
        opacity: .42;
      }

      .cls-12 {
        fill: url(#Degradado_sin_nombre_4-2);
      }

      .cls-13 {
        fill: url(#Degradado_sin_nombre_4);
      }

      .cls-28 {
        filter: url(#luminosity-noclip-9);
      }

      .cls-29 {
        opacity: .43;
      }

      .cls-14 {
        fill: url(#Degradado_sin_nombre_5);
      }

      .cls-30 {
        mask: url(#mask-11);
      }

      .cls-15 {
        fill: url(#Degradado_sin_nombre_2-2);
      }

      .cls-31 {
        mask: url(#mask-12);
      }

      .cls-32 {
        mask: url(#mask-4);
      }

      .cls-33 {
        filter: url(#luminosity-noclip-7);
      }

      .cls-34 {
        clip-path: url(#clippath);
      }

      .cls-16 {
        fill: url(#Degradado_sin_nombre_9);
      }

      .cls-35 {
        mask: url(#mask-3);
      }

      .cls-36 {
        filter: url(#luminosity-noclip);
      }
    </style>
    <clipPath id="clippath">
      <path d="M473.38,816.5L198.89,455.93v360.56H0V0h198.89v358.23L471.06,0h225.16l-316.36,400.11,328,416.39h-234.47Z"/>
    </clipPath>
    <filter id="luminosity-noclip" x="-499.48" y="-1516.15" width="1715.43" height="2332.64" color-interpolation-filters="sRGB" filterUnits="userSpaceOnUse">
      <feFlood flood-color="#fff" result="bg"/>
      <feBlend in="SourceGraphic" in2="bg"/>
    </filter>
    <filter id="luminosity-noclip-2" x="-499.48" y="-8039.54" width="1715.43" height="32766" color-interpolation-filters="sRGB" filterUnits="userSpaceOnUse">
      <feFlood flood-color="#fff" result="bg"/>
      <feBlend in="SourceGraphic" in2="bg"/>
    </filter>
    <mask id="mask-1" x="-499.48" y="-8039.54" width="1715.43" height="32766" maskUnits="userSpaceOnUse"/>
    <linearGradient id="Degradado_sin_nombre_4" data-name="Degradado sin nombre 4" x1="-850.02" y1="-3004.42" x2="1059.9" y2="-648.86" gradientTransform="translate(-1301.92 105.69) rotate(90)" gradientUnits="userSpaceOnUse">
      <stop offset="0" stop-color="#4d4d4d"/>
      <stop offset=".13" stop-color="#5b5b5b"/>
      <stop offset=".36" stop-color="#818181"/>
      <stop offset=".69" stop-color="#bebebe"/>
      <stop offset="1" stop-color="#fff"/>
    </linearGradient>
    <mask id="mask" x="-499.48" y="-1516.15" width="1715.43" height="2332.64" maskUnits="userSpaceOnUse">
      <g class="cls-36">
        <g class="cls-3">
          <polygon class="cls-13" points="1215.95 -1516.15 -499.48 816.5 1215.95 816.5 1215.95 -1516.15"/>
        </g>
      </g>
    </mask>
    <filter id="luminosity-noclip-3" x="-499.48" y="-1516.15" width="1715.43" height="2332.64" color-interpolation-filters="sRGB" filterUnits="userSpaceOnUse">
      <feFlood flood-color="#fff" result="bg"/>
      <feBlend in="SourceGraphic" in2="bg"/>
    </filter>
    <filter id="luminosity-noclip-4" x="-499.48" y="-8039.54" width="1715.43" height="32766" color-interpolation-filters="sRGB" filterUnits="userSpaceOnUse">
      <feFlood flood-color="#fff" result="bg"/>
      <feBlend in="SourceGraphic" in2="bg"/>
    </filter>
    <mask id="mask-3" x="-499.48" y="-8039.54" width="1715.43" height="32766" maskUnits="userSpaceOnUse"/>
    <linearGradient id="Degradado_sin_nombre_9" data-name="Degradado sin nombre 9" x1="-1667.88" y1="-1530.11" x2="422" y2="-1754.28" gradientTransform="translate(-1301.92 105.69) rotate(90)" gradientUnits="userSpaceOnUse">
      <stop offset="0" stop-color="#000"/>
      <stop offset=".11" stop-color="#151515"/>
      <stop offset=".35" stop-color="#4d4d4d"/>
      <stop offset=".69" stop-color="#a6a6a6"/>
      <stop offset="1" stop-color="#fff"/>
    </linearGradient>
    <mask id="mask-2" x="-499.48" y="-1516.15" width="1715.43" height="2332.64" maskUnits="userSpaceOnUse">
      <g class="cls-20">
        <g class="cls-35">
          <polygon class="cls-16" points="1215.95 -1516.15 -499.48 -1372.21 -499.48 816.5 358.24 816.5 1215.95 -1516.15"/>
        </g>
      </g>
    </mask>
    <filter id="luminosity-noclip-5" x="-499.48" y="-1372.21" width="1077.48" height="2188.71" color-interpolation-filters="sRGB" filterUnits="userSpaceOnUse">
      <feFlood flood-color="#fff" result="bg"/>
      <feBlend in="SourceGraphic" in2="bg"/>
    </filter>
    <filter id="luminosity-noclip-6" x="-499.48" y="-8039.54" width="1077.48" height="32766" color-interpolation-filters="sRGB" filterUnits="userSpaceOnUse">
      <feFlood flood-color="#fff" result="bg"/>
      <feBlend in="SourceGraphic" in2="bg"/>
    </filter>
    <mask id="mask-5" x="-499.48" y="-8039.54" width="1077.48" height="32766" maskUnits="userSpaceOnUse"/>
    <linearGradient id="Degradado_sin_nombre_2" data-name="Degradado sin nombre 2" x1="-520.55" y1="-1510.15" x2="419.18" y2="-351.15" gradientTransform="translate(-1301.92 105.69) rotate(90)" gradientUnits="userSpaceOnUse">
      <stop offset="0" stop-color="#000"/>
      <stop offset=".06" stop-color="#1a1a1a"/>
      <stop offset=".21" stop-color="#565656"/>
      <stop offset=".36" stop-color="#898989"/>
      <stop offset=".5" stop-color="#b3b3b3"/>
      <stop offset=".64" stop-color="#d4d4d4"/>
      <stop offset=".77" stop-color="#ececec"/>
      <stop offset=".89" stop-color="#fafafa"/>
      <stop offset="1" stop-color="#fff"/>
    </linearGradient>
    <mask id="mask-4" x="-499.48" y="-1372.21" width="1077.48" height="2188.71" maskUnits="userSpaceOnUse">
      <g class="cls-7">
        <g class="cls-1">
          <polygon class="cls-10" points="578 816.5 -499.48 -1372.21 -499.48 816.5 578 816.5"/>
        </g>
      </g>
    </mask>
    <clipPath id="clippath-1">
      <path d="M1466.16,0l-118.63,594.35L1207.95,0h-218.67l-145.39,594.35L731.15,23.88l-160.16,202.56,149.63,590.06h240.76l134.92-537.34,130.26,537.34h240.76L1680.17,0h-214.01Z"/>
    </clipPath>
    <filter id="luminosity-noclip-7" x="249.53" y="-1157.88" width="1694.68" height="1974.38" color-interpolation-filters="sRGB" filterUnits="userSpaceOnUse">
      <feFlood flood-color="#fff" result="bg"/>
      <feBlend in="SourceGraphic" in2="bg"/>
    </filter>
    <filter id="luminosity-noclip-8" x="249.53" y="-8039.54" width="1694.68" height="32766" color-interpolation-filters="sRGB" filterUnits="userSpaceOnUse">
      <feFlood flood-color="#fff" result="bg"/>
      <feBlend in="SourceGraphic" in2="bg"/>
    </filter>
    <mask id="mask-7" x="249.53" y="-8039.54" width="1694.68" height="32766" maskUnits="userSpaceOnUse"/>
    <linearGradient id="Degradado_sin_nombre_5" data-name="Degradado sin nombre 5" x1="309.39" y1="-711.95" x2="1774.74" y2="1095.31" gradientTransform="translate(995.89 -975.46) rotate(90)" gradientUnits="userSpaceOnUse">
      <stop offset="0" stop-color="gray"/>
      <stop offset="1" stop-color="#fff"/>
    </linearGradient>
    <mask id="mask-6" x="249.53" y="-1157.88" width="1694.68" height="1974.38" maskUnits="userSpaceOnUse">
      <g class="cls-33">
        <g class="cls-6">
          <polygon class="cls-14" points="249.53 -1157.88 1944.21 -506.3 1944.21 816.5 249.53 816.5 249.53 -1157.88"/>
        </g>
      </g>
    </mask>
    <filter id="luminosity-noclip-9" x="249.53" y="-1694.06" width="1694.68" height="2510.55" color-interpolation-filters="sRGB" filterUnits="userSpaceOnUse">
      <feFlood flood-color="#fff" result="bg"/>
      <feBlend in="SourceGraphic" in2="bg"/>
    </filter>
    <filter id="luminosity-noclip-10" x="249.53" y="-8039.54" width="1694.68" height="32766" color-interpolation-filters="sRGB" filterUnits="userSpaceOnUse">
      <feFlood flood-color="#fff" result="bg"/>
      <feBlend in="SourceGraphic" in2="bg"/>
    </filter>
    <mask id="mask-9" x="249.53" y="-8039.54" width="1694.68" height="32766" maskUnits="userSpaceOnUse"/>
    <linearGradient id="Degradado_sin_nombre_4-2" data-name="Degradado sin nombre 4" x1="109.23" y1="-1475.52" x2="2084.54" y2="960.7" gradientTransform="translate(995.89 -975.46) rotate(90)" xlink:href="#Degradado_sin_nombre_4"/>
    <mask id="mask-8" x="249.53" y="-1694.06" width="1694.68" height="2510.55" maskUnits="userSpaceOnUse">
      <g class="cls-28">
        <g class="cls-21">
          <polygon class="cls-12" points="1944.21 -1694.06 249.53 816.5 1944.21 816.5 1944.21 -1694.06"/>
        </g>
      </g>
    </mask>
    <filter id="luminosity-noclip-11" x="249.53" y="-1694.06" width="1694.68" height="2510.55" color-interpolation-filters="sRGB" filterUnits="userSpaceOnUse">
      <feFlood flood-color="#fff" result="bg"/>
      <feBlend in="SourceGraphic" in2="bg"/>
    </filter>
    <filter id="luminosity-noclip-12" x="249.53" y="-8039.54" width="1694.68" height="32766" color-interpolation-filters="sRGB" filterUnits="userSpaceOnUse">
      <feFlood flood-color="#fff" result="bg"/>
      <feBlend in="SourceGraphic" in2="bg"/>
    </filter>
    <mask id="mask-11" x="249.53" y="-8039.54" width="1694.68" height="32766" maskUnits="userSpaceOnUse"/>
    <linearGradient id="Degradado_sin_nombre_3" data-name="Degradado sin nombre 3" x1="2524.75" y1="153.73" x2="270.14" y2="277.27" gradientTransform="translate(869.88 748.9) rotate(-90)" gradientUnits="userSpaceOnUse">
      <stop offset="0" stop-color="#000"/>
      <stop offset=".1" stop-color="#0f0f0f"/>
      <stop offset=".28" stop-color="#383838"/>
      <stop offset=".54" stop-color="#7b7b7b"/>
      <stop offset=".86" stop-color="#d6d6d6"/>
      <stop offset="1" stop-color="#fff"/>
    </linearGradient>
    <mask id="mask-10" x="249.53" y="-1694.06" width="1694.68" height="2510.55" maskUnits="userSpaceOnUse">
      <g class="cls-18">
        <g class="cls-30">
          <polygon class="cls-11" points="1944.21 -1694.06 249.53 -1539.14 249.53 816.5 1096.87 816.5 1944.21 -1694.06"/>
        </g>
      </g>
    </mask>
    <filter id="luminosity-noclip-13" x="249.53" y="-1539.14" width="1064.45" height="2355.64" color-interpolation-filters="sRGB" filterUnits="userSpaceOnUse">
      <feFlood flood-color="#fff" result="bg"/>
      <feBlend in="SourceGraphic" in2="bg"/>
    </filter>
    <filter id="luminosity-noclip-14" x="249.53" y="-8039.54" width="1064.45" height="32766" color-interpolation-filters="sRGB" filterUnits="userSpaceOnUse">
      <feFlood flood-color="#fff" result="bg"/>
      <feBlend in="SourceGraphic" in2="bg"/>
    </filter>
    <mask id="mask-13" x="249.53" y="-8039.54" width="1064.45" height="32766" maskUnits="userSpaceOnUse"/>
    <linearGradient id="Degradado_sin_nombre_2-2" data-name="Degradado sin nombre 2" x1="443.4" y1="3.54" x2="1454.8" y2="1250.94" gradientTransform="translate(995.89 -975.46) rotate(90)" xlink:href="#Degradado_sin_nombre_2"/>
    <mask id="mask-12" x="249.53" y="-1539.14" width="1064.45" height="2355.64" maskUnits="userSpaceOnUse">
      <g class="cls-26">
        <g class="cls-2">
          <polygon class="cls-15" points="1313.98 816.5 249.53 -1539.14 249.53 816.5 1313.98 816.5"/>
        </g>
      </g>
    </mask>
  </defs>
  <g class="cls-24">
    <g id="Layer_2" data-name="Layer 2">
      <g id="Layer_1-2" data-name="Layer 1">
        <g>
          <g>
            <path d="M473.38,816.5L198.89,455.93v360.56H0V0h198.89v358.23L471.06,0h225.16l-316.36,400.11,328,416.39h-234.47Z"/>
            <g class="cls-34">
              <g>
                <polygon points="-499.48 -1017.97 1215.95 -412.56 1215.95 816.5 -499.48 816.5 -499.48 -1017.97"/>
                <g class="cls-8">
                  <polygon class="cls-29" points="1215.95 -1516.15 -499.48 816.5 1215.95 816.5 1215.95 -1516.15"/>
                </g>
                <g class="cls-19">
                  <polygon class="cls-27" points="1215.95 -1516.15 -499.48 -1372.21 -499.48 816.5 358.24 816.5 1215.95 -1516.15"/>
                </g>
                <polygon points="1215.95 -412.56 -498.35 408.28 -499.48 816.5 1215.95 816.5 1215.95 -412.56"/>
                <polygon points="1215.95 816.5 -499.48 816.5 -499.48 -418.71 1215.95 816.5"/>
                <polygon class="cls-9" points="1215.95 404.38 -499.48 .05 -499.48 816.5 1215.95 816.5 1215.95 404.38"/>
                <polygon points="-499.48 816.5 1215.95 -412.56 1215.95 816.5 -499.48 816.5"/>
                <g class="cls-32">
                  <polygon class="cls-23" points="578 816.5 -499.48 -1372.21 -499.48 816.5 578 816.5"/>
                </g>
              </g>
            </g>
          </g>
          <g>
            <path d="M1466.16,0l-118.63,594.35L1207.95,0h-218.67l-145.39,594.35L731.15,23.88l-160.16,202.56,149.63,590.06h240.76l134.92-537.34,130.26,537.34h240.76L1680.17,0h-214.01Z"/>
            <g class="cls-22">
              <g>
                <g class="cls-5">
                  <polygon class="cls-25" points="249.53 -1157.88 1944.21 -506.3 1944.21 816.5 249.53 816.5 249.53 -1157.88"/>
                </g>
                <g class="cls-17">
                  <polygon class="cls-29" points="1944.21 -1694.06 249.53 816.5 1944.21 816.5 1944.21 -1694.06"/>
                </g>
                <g class="cls-4">
                  <polygon class="cls-27" points="1944.21 -1694.06 249.53 -1539.14 249.53 816.5 1096.87 816.5 1944.21 -1694.06"/>
                </g>
                <polygon points="1944.21 -506.3 250.65 377.14 249.53 816.5 1944.21 816.5 1944.21 -506.3"/>
                <polygon points="1944.21 816.5 249.53 816.5 249.53 -512.91 1944.21 816.5"/>
                <polygon class="cls-9" points="1944.21 372.94 249.53 -62.22 249.53 816.5 1944.21 816.5 1944.21 372.94"/>
                <polygon points="249.53 816.5 1944.21 -506.3 1944.21 816.5 249.53 816.5"/>
                <g class="cls-31">
                  <polygon class="cls-23" points="1313.98 816.5 249.53 -1539.14 249.53 816.5 1313.98 816.5"/>
                </g>
              </g>
            </g>
          </g>
        </g>
      </g>
    </g>
  </g>
</svg>