<?xml version="1.0" encoding="UTF-8"?>
<svg id="Layer_2" data-name="Layer 2" xmlns="http://www.w3.org/2000/svg" viewBox="0 0 64.55 64.55">
  <g id="Layer_2-2" data-name="Layer 2">
    <g id="Layer_2-3" data-name="Layer 2">
      <g id="linkedin">
        <path id="icon" d="M55.75,0H8.8C3.94,0,0,3.94,0,8.8v46.95c0,4.86,3.94,8.8,8.8,8.8h46.95c4.86,0,8.8-3.94,8.8-8.8V8.8c0-4.86-3.94-8.8-8.8-8.8ZM22.01,51.08c0,.75-.61,1.36-1.36,1.36,0,0,0,0,0,0h-5.8c-.75,0-1.36-.61-1.36-1.36,0,0,0,0,0,0v-24.31c0-.75.61-1.36,1.36-1.36h5.8c.75,0,1.36.61,1.36,1.36v24.31ZM17.74,23.11c-3.04,0-5.5-2.46-5.5-5.5s2.46-5.5,5.5-5.5,5.5,2.46,5.5,5.5-2.46,5.5-5.5,5.5ZM52.32,51.18c0,.69-.56,1.25-1.25,1.25,0,0,0,0,0,0h-6.24c-.69,0-1.25-.56-1.25-1.25,0,0,0,0,0,0v-11.39c0-1.7.5-7.45-4.45-7.45-3.83,0-4.61,3.94-4.77,5.7v13.15c0,.69-.55,1.24-1.24,1.25h-6.02c-.69,0-1.25-.56-1.25-1.25,0,0,0,0,0,0v-24.53c0-.69.56-1.25,1.25-1.25,0,0,0,0,0,0h6.02c.69,0,1.25.56,1.25,1.25v2.12c1.42-2.14,3.53-3.78,8.03-3.78,9.97,0,9.9,9.31,9.9,14.42v11.75Z"/>
      </g>
    </g>
  </g>
</svg>