<?xml version="1.0" encoding="UTF-8"?>
<svg id="Layer_2" data-name="Layer 2" xmlns="http://www.w3.org/2000/svg" viewBox="0 0 142.34 133.33">
  <polygon points="132.37 5.47 132.37 27.03 119.71 27.03 104.61 5.47 132.37 5.47"/>
  <path d="M132.38,46.41v20.26c0,3.25-.28,6.43-.76,9.54-2.28,14.76-9.92,27.79-20.81,37.09-10.68,9.06-24.54,14.55-39.62,14.55-33.81,0-61.22-27.38-61.22-61.19,0-7.09,1.21-13.9,3.42-20.26,2.52-7.16,6.33-13.69,11.13-19.39,11.24-13.17,27.97-21.54,46.67-21.54h10.85l15.14,21.54h-26c-14.52,0-27.17,7.78-34.09,19.39-3.53,5.95-5.57,12.86-5.57,20.26,0,21.88,17.77,39.62,39.65,39.62s39.62-17.73,39.62-39.62v-20.26h21.57Z"/>
</svg>