<?xml version="1.0" encoding="UTF-8"?>
<svg id="Layer_2" data-name="Layer 2" xmlns="http://www.w3.org/2000/svg" viewBox="0 0 61.66 61.66">
  <g id="Layer_2-2" data-name="Layer 2">
    <g>
      <polygon points="61.66 0 61.66 10.87 55.28 10.87 47.67 0 61.66 0"/>
      <path d="M61.66,20.63v10.2c0,1.64-.14,3.24-.38,4.81-1.15,7.44-5,14-10.48,18.68-5.38,4.56-12.36,7.33-19.96,7.33C13.81,61.65,0,47.86,0,30.83c0-3.57.61-7,1.72-10.2,1.27-3.6,3.19-6.9,5.61-9.77C12.99,4.23,21.42.01,30.84.01h5.47l7.63,10.85h-13.09c-7.31,0-13.69,3.92-17.17,9.77-1.78,3-2.8,6.48-2.8,10.2,0,11.02,8.95,19.96,19.97,19.96s19.96-8.93,19.96-19.96v-10.2h10.87Z"/>
    </g>
    <g>
      <polygon points="61.66 0 61.66 10.87 55.28 10.87 47.67 0 61.66 0"/>
      <path d="M61.66,20.63v10.2c0,1.64-.14,3.24-.38,4.81-1.15,7.44-5,14-10.48,18.68-5.38,4.56-12.36,7.33-19.96,7.33C13.81,61.65,0,47.86,0,30.83c0-3.57.61-7,1.72-10.2,1.27-3.6,3.19-6.9,5.61-9.77C12.99,4.23,21.42.01,30.84.01h5.47l7.63,10.85h-13.09c-7.31,0-13.69,3.92-17.17,9.77-1.78,3-2.8,6.48-2.8,10.2,0,11.02,8.95,19.96,19.97,19.96s19.96-8.93,19.96-19.96v-10.2h10.87Z"/>
    </g>
    <g>
      <polygon points="0 61.65 0 50.79 6.38 50.79 13.99 61.65 0 61.65"/>
      <path d="M0,41.03v-10.2c0-1.64.14-3.24.38-4.81,1.15-7.44,5-14,10.48-18.68C16.25,2.77,23.23,0,30.82,0,47.85,0,61.66,13.8,61.66,30.83c0,3.57-.61,7-1.72,10.2-1.27,3.6-3.19,6.9-5.61,9.77-5.66,6.63-14.09,10.85-23.51,10.85h-5.47l-7.63-10.85h13.09c7.31,0,13.69-3.92,17.17-9.77,1.78-3,2.8-6.48,2.8-10.2,0-11.02-8.95-19.96-19.97-19.96S10.87,19.8,10.87,30.83v10.2H0Z"/>
    </g>
    <g>
      <polygon points="61.65 61.66 50.79 61.66 50.79 55.28 61.65 47.67 61.65 61.66"/>
      <path d="M41.03,61.66h-10.2c-1.64,0-3.24-.14-4.81-.38-7.44-1.15-14-5-18.68-10.48C2.77,45.41,0,38.43,0,30.84,0,13.81,13.8,0,30.83,0c3.57,0,7,.61,10.2,1.72,3.6,1.27,6.9,3.19,9.77,5.61,6.63,5.66,10.85,14.09,10.85,23.51v5.47l-10.85,7.63v-13.09c0-7.31-3.92-13.69-9.77-17.17-3-1.78-6.48-2.8-10.2-2.8-11.02,0-19.96,8.95-19.96,19.97s8.93,19.96,19.96,19.96h10.2v10.87Z"/>
    </g>
    <g>
      <polygon points="0 0 10.87 0 10.87 6.38 0 13.99 0 0"/>
      <path d="M20.63,0h10.2C32.47,0,34.07.14,35.64.38c7.44,1.15,14,5,18.68,10.48,4.56,5.38,7.33,12.36,7.33,19.96,0,17.03-13.79,30.84-30.82,30.84-3.57,0-7-.61-10.2-1.72-3.6-1.27-6.9-3.19-9.77-5.61C4.23,48.67.01,40.24.01,30.82v-5.47l10.85-7.63v13.09c0,7.31,3.92,13.69,9.77,17.17,3,1.78,6.48,2.8,10.2,2.8,11.02,0,19.96-8.95,19.96-19.97s-8.93-19.96-19.96-19.96h-10.2V0Z"/>
    </g>
  </g>
</svg>