<?xml version="1.0" encoding="UTF-8"?>
<svg id="Layer_2" data-name="Layer 2" xmlns="http://www.w3.org/2000/svg" viewBox="0 0 192.52 86.79">
  <g id="Object">
    <g>
      <polygon points="40.12 18 33.39 18 25.16 38.56 16.99 18 10.26 18 25.16 55.38 40.12 18"/>
      <rect x="48.95" y="18" width="6.25" height="37.38"/>
      <rect x="65.35" y="49.2" width="24.68" height="6.18"/>
      <path d="M77.85,45.77c7.64,0,13.89-6.25,13.89-13.88s-6.25-13.89-13.89-13.89-13.89,6.25-13.89,13.89,6.25,13.88,13.89,13.88ZM77.85,24.2c4.27,0,7.69,3.42,7.69,7.69s-3.42,7.69-7.69,7.69-7.69-3.42-7.69-7.69,3.42-7.69,7.69-7.69Z"/>
      <polygon points="120.6 49.14 106.77 49.14 106.77 18 100.52 18 100.52 55.38 120.6 55.38 120.6 49.14"/>
      <polygon points="154.75 49.14 136.05 49.14 136.05 39.79 151.6 39.79 151.6 33.59 136.05 33.59 136.05 24.25 154.75 24.25 154.75 18 129.81 18 129.81 55.38 154.75 55.38 154.75 49.14"/>
      <polygon points="168.55 55.38 174.74 55.38 174.74 24.25 180.99 24.25 180.99 18 162.3 18 162.3 24.25 168.55 24.25 168.55 55.38"/>
      <path d="M77.82,47.35c8.51,0,15.44-6.92,15.44-15.43s-6.93-15.44-15.44-15.44-15.44,6.93-15.44,15.44,6.93,15.43,15.44,15.43ZM77.82,17.33c8.05,0,14.58,6.53,14.58,14.59s-6.53,14.58-14.58,14.58-14.58-6.54-14.58-14.58,6.53-14.59,14.58-14.59Z"/>
      <path d="M0,0s0,0,0,0v75.64c0,.59.48,1.07,1.07,1.07h44.77c.59,0,1.07-.48,1.07-1.07s-.48-1.07-1.07-1.07H2.14V2.14h188.24v72.43h-28.09c-.59,0-1.07.48-1.07,1.07s.48,1.07,1.07,1.07h29.15c.59,0,1.07-.48,1.07-1.07V0H0Z"/>
      <path d="M188.64,73.12V3.17H2.91v69.95c0,.24.19.43.43.43h49.1c.06-.01.12-.03.18-.04.47-.22,1.05-.56,1.45-.8l-.05.1-.06.06c-.37.31-.84.73-1.29,1.19-.25.26-.49.5-.72.73-.14.14-.28.28-.41.42-.63.71-1.19,1.36-1.7,1.99-.59.73-1.07,1.38-1.47,1.99-.43.63-.78,1.24-1.04,1.79-.27.54-.41,1-.41,1.38v.09c.09.52.42.63.68.63.06,0,.13,0,.22-.03.22-.08.42-.18.58-.29.18-.11.37-.27.58-.48.39-.39.81-.87,1.27-1.44.47-.58.92-1.23,1.38-1.97.24-.41.43-.74.62-1.05.22-.37.44-.71.66-1.05l.26-.46c.51.12,1.1,0,1.75-.39.65-.37,1.26-.86,1.81-1.46l.12-.12h.07c.76-.3,1.61-.63,2.41-.95.78-.31,1.45-.67,2.02-1.07l.34-.19c-.13.23-.25.47-.35.71-.16.37-.27.7-.34.99-.07.17-.02.33.13.42.06.05.13.07.19.07s.16-.03.24-.15c.42-.37.94-.74,1.53-1.1.67-.39,1.24-.69,1.76-.93.56-.27,1.04-.45,1.43-.54.14-.03.25-.05.34-.05.12,0,.16.03.17.05-.05.14-.15.31-.29.51-.18.25-.35.47-.52.67-.19.23-.35.46-.47.7-.12.25-.14.47-.06.65.09.22.31.33.64.33.29,0,.63-.07,1.05-.2.41-.13.84-.29,1.29-.48.46-.2.91-.41,1.32-.63.19-.1.38-.21.56-.31-.02.07-.05.13-.06.2-.05.38.08.71.41.98.22.2.56.31,1.04.34h.08c.45,0,.97-.2,1.61-.61.35.08.79.07,1.29-.02.5-.08,1.03-.21,1.56-.4.48-.16.97-.36,1.46-.59.15-.07.26-.13.38-.2-.04.1-.08.19-.1.28-.04.17-.06.34-.06.52,0,.31.09.55.27.73.18.19.42.3.7.34.25.08.55.12.9.12s.74-.04,1.17-.12c.87-.15,1.76-.37,2.67-.66.83-.27,1.63-.57,2.39-.89-.01.05-.04.11-.05.16-.05.38.08.71.41.98.22.2.56.31,1.04.34h.08c.45,0,.97-.2,1.6-.61.35.08.79.07,1.3-.02.5-.08,1.03-.21,1.56-.4.14-.05.28-.12.42-.17-.2.36-.21.73,0,1.05.25.56.8.69,1.62.37.62-.25,1.41-.81,2.35-1.67-.47.69-.95,1.4-1.44,2.11-.71,1.03-1.53,2.1-2.46,3.18l-.06.12-.96.59c-1.14.73-2.22,1.45-3.22,2.13-.97.65-1.87,1.31-2.66,1.94-.74.59-1.38,1.16-1.89,1.69-.52.53-.78,1-.78,1.41v.1c.09.31.25.51.49.59.12.03.24.05.36.05.11,0,.22-.01.34-.04.23-.07.49-.2.76-.39.27-.18.57-.37.92-.59.69-.47,1.44-1.08,2.24-1.82.86-.81,1.71-1.65,2.53-2.5l1.2-1.34,1.2-1.28,2.32-1.42c.99-.64,1.8-1.14,2.52-1.59.83-.52,1.62-1.01,2.37-1.47.73-.46,1.42-.9,2.05-1.31.24-.16.45-.29.65-.43,0,0,.02,0,.02,0h.03l.03-.02c.23-.15.54-.34.94-.6.37-.23.86-.55,1.51-.98.05.16.09.3.12.43.04.16.13.34.28.57-.35.38-.63.77-.86,1.18-.24.45-.25.85-.02,1.19.18.23.5.35.93.35.15,0,.32-.01.51-.04.68-.1,1.41-.3,2.17-.59.59-.22,1.19-.48,1.8-.77-.04.1-.09.21-.11.31-.08.4.04.72.39.92.1.06.22.09.37.09.12,0,.27-.02.43-.06.37-.1.74-.24,1.11-.4.47-.21.84-.41,1.18-.63.28-.18.51-.34.71-.47-.03.15-.02.3.02.46.07.29.27.48.58.56.29.09.66.05,1.14-.11.41-.14.84-.32,1.33-.56.3-.16.61-.35.92-.53.01,0,.02,0,.03,0h.04l.03-.03s.1-.08.15-.11c.02-.01.04-.02.06-.04.23-.15.4-.26.55-.35-.02.05-.03.11-.04.17l-.13.26-.06.06c-.37.31-.84.73-1.29,1.19-.29.3-.56.57-.82.84l-.31.32c-.63.71-1.19,1.36-1.7,1.99-.59.73-1.07,1.38-1.47,1.99-.43.63-.78,1.24-1.04,1.79-.27.55-.4,1.01-.4,1.38v.1c.1.52.42.63.68.63.06,0,.13,0,.22-.03.23-.08.42-.18.59-.29.18-.11.37-.27.58-.48.38-.38.81-.87,1.27-1.44.47-.59.94-1.26,1.38-1.97.2-.35.41-.7.62-1.05.21-.35.43-.7.66-1.05l.26-.46c.51.12,1.1,0,1.76-.39.65-.38,1.26-.87,1.81-1.46l.12-.12h.07c.75-.29,1.6-.63,2.41-.95.77-.31,1.42-.66,1.98-1.05l.38-.22c-.13.23-.25.47-.36.71-.16.38-.27.7-.34.98-.07.18-.02.34.13.42.06.05.12.07.19.07.07,0,.16-.03.24-.15.42-.37.94-.74,1.53-1.1.67-.39,1.24-.69,1.76-.93.56-.27,1.04-.45,1.43-.54.14-.03.25-.05.33-.05.12,0,.16.03.17.05-.05.14-.15.31-.29.51-.17.23-.34.46-.52.67-.19.22-.35.46-.47.7-.13.25-.15.47-.06.65.09.22.31.33.64.33.29,0,.64-.07,1.05-.2.41-.13.85-.3,1.29-.48.32-.14.62-.29.92-.44.08.16.18.32.32.46.23.21.5.37.8.49.3.12.63.17,1.02.17.54,0,1.1-.07,1.66-.21.56-.13,1.13-.31,1.67-.53.5-.2,1.01-.43,1.55-.72.49-.26.92-.53,1.28-.79.02-.02.03-.04.05-.06.1-.05.22-.12.35-.2.24-.15.42-.28.57-.4l.17-.13c.05-.04.09-.07.13-.1.2.18.45.33.77.44.32.11.6.13.86.08.2.86.66,1.52,1.38,1.98.74.47,1.61.78,2.58.9.34.05.69.07,1.04.07.64,0,1.32-.07,2.03-.22.99-.21,1.87-.56,2.64-1.04.04.01.08.02.12.02h32.79c.24,0,.43-.19.43-.43ZM90.64,80.31c-.08.09-.16.18-.24.28-.13.14-.25.29-.37.42-.83.82-1.67,1.63-2.5,2.39-.72.65-1.44,1.26-2.16,1.82-.64.48-1.12.74-1.48.81-.12.05-.19.07-.22.07,0-.01,0-.03,0-.04v-.13c.12-.26.36-.58.72-.96.38-.4.93-.89,1.64-1.46.53-.41,1.14-.86,1.92-1.41.71-.49,1.48-1,2.29-1.53l.47-.32s-.04.04-.06.07ZM53.04,74.92l-.05.05c-.23.15-.4.33-.49.5v.28s.05.15.05.15l-.2.46-1.36,2.11c-.41.67-.85,1.3-1.34,1.93-.47.58-.86,1.03-1.2,1.37-.52.51-.7.57-.76.57h-.08l-.02-.04.05-.11v-.03c.06-.32.21-.72.47-1.21.26-.49.59-1.03.99-1.58.38-.54.82-1.12,1.35-1.79.48-.61,1.01-1.2,1.62-1.84.16-.22.32-.39.44-.51.09-.09.18-.18.28-.28l.17-.18.32-.28-.24.45ZM55.33,74.82c-.43.33-.85.58-1.24.75-.2.09-.38.13-.54.13h-.06l.11-.28.18-.13c.07-.02.14-.04.21-.06.16-.05.33-.1.51-.14.29-.08.61-.21.85-.31h.06s-.08.05-.08.05ZM57.49,72.16c-.11.36-.39.82-.82,1.38l-.2.13-.88.3c-.09.03-.19.06-.29.09-.13.05-.27.09-.41.13-.24.08-.45.16-.64.22l-.12.02c.05-.14.1-.26.15-.38.06-.17.12-.32.16-.46l.22-.37.07-.07c.14-.14.28-.25.42-.34.14-.1.28-.21.4-.33,1.1-.79,1.55-.96,1.73-.96.04,0,.06,0,.07.03l.02.03h.04c.06.03.24.1.1.56ZM72.75,73.33c-.39.18-.74.27-1.06.27s-.52-.09-.58-.27c-.09-.26,0-.57.27-.91.35-.23.64-.44.91-.65.17-.13.34-.26.49-.38-.18.34-.29.67-.32,1.02-.03.36.06.67.28.92ZM73.83,72.3c-.18.23-.35.42-.53.58-.11-.11-.15-.26-.11-.46.05-.28.15-.56.31-.81.17-.29.36-.52.57-.71.18-.18.34-.26.47-.26h.03s.04.1.02.22c-.04.19-.13.42-.25.66-.13.25-.29.51-.5.78ZM88.49,73.33c-.39.18-.74.27-1.06.27s-.52-.09-.58-.27c-.09-.26,0-.57.27-.91.35-.23.64-.44.91-.65.18-.13.34-.26.49-.38-.18.34-.29.67-.32,1.02-.03.36.06.67.28.92ZM89.56,72.3c-.17.22-.35.42-.53.58-.11-.11-.15-.26-.11-.46.05-.27.15-.55.31-.81.17-.29.36-.52.57-.71.18-.18.34-.26.47-.26h.03s.04.1.02.22c-.04.19-.13.42-.26.66-.12.25-.29.5-.5.78ZM114.19,72.37c-.41.29-.8.55-1.2.77-.35.2-.77.43-1.18.6-.33.15-.61.21-.82.16-.05-.03-.12-.12,0-.35.11-.23.29-.47.54-.72.1-.1.22-.2.34-.29.15-.08.29-.16.4-.23.06-.01.12-.06.17-.16.33-.19.64-.28.93-.28.34,0,.49.06.55.11.11.09.23.17.37.25.03.02.05.03.08.04-.06.04-.12.08-.18.12ZM118.1,74.92l-.05.05c-.23.15-.4.33-.49.5v.27s.05.15.05.15l-.2.46-1.36,2.11c-.42.68-.86,1.31-1.35,1.93-.48.59-.87,1.04-1.2,1.37-.53.53-.71.57-.75.57h-.08l-.02-.04.05-.1v-.03c.06-.32.21-.72.47-1.21.26-.49.59-1.03.99-1.58.38-.54.82-1.12,1.35-1.79.48-.6,1.01-1.2,1.62-1.84.13-.18.27-.34.44-.51.1-.1.19-.19.29-.29l.16-.17.32-.28-.24.44ZM120.38,74.82c-.43.33-.85.58-1.24.75-.2.09-.38.13-.54.13h-.06l.11-.28.19-.13.2-.06c.16-.05.34-.1.52-.15.29-.08.59-.2.85-.31h.06s-.08.05-.08.05ZM122.54,72.16c-.11.36-.39.82-.82,1.38l-.2.13-.89.3c-.1.03-.2.06-.3.1-.13.04-.26.08-.4.12-.24.08-.46.16-.64.22l-.13.02c.05-.14.1-.26.15-.38.06-.17.12-.32.16-.46l.21-.36.08-.08c.15-.15.29-.26.41-.34.14-.09.28-.2.4-.33,1.1-.79,1.55-.96,1.73-.96.06,0,.07.02.08.03l.02.04h.04c.06.03.24.09.1.55ZM187.78,72.69h-32.37c-.08,0-.15.03-.21.06-.02.01-.05,0-.07.02-.9.56-1.88.95-2.92,1.14-1.04.18-2,.2-2.84.06-.88-.16-1.58-.46-2.15-.93-.56-.45-.86-1.04-.88-1.76,0-.05-.02-.22-.29-.22-.08,0-.18.02-.3.05-.33.1-.62.08-.85,0-.19-.09-.33-.17-.41-.25.13-.14.2-.25.23-.34.03-.12.03-.21,0-.28-.09-.21-.34-.21-.42-.21-.03,0-.06,0-.1,0-.19.02-.43.15-.5.65-.18.14-.42.31-.77.56l-.1.07c-.15.11-.29.21-.41.3-.04.02-.07.04-.11.07-.68.45-1.49.89-2.4,1.29-.93.42-1.87.69-2.79.81-.51.05-.96.02-1.34-.14-.33-.15-.56-.36-.69-.62.02-.01.04-.02.06-.03.11-.04.25-.09.44-.17.31-.13.62-.28.93-.46.3-.16.58-.36.82-.6.23-.24.34-.49.31-.75-.03-.27-.21-.46-.49-.53-.26-.07-.53-.07-.84-.02-.36.08-.73.26-1.1.55-.37.29-.63.63-.78,1.02-.07.17-.12.33-.14.49-.04.02-.08.04-.12.06-.2.09-.4.18-.59.27-.18.08-.35.16-.52.24l-.23.1c-.26.12-.48.22-.67.29-.49.2-.7.26-.82.26,0-.05.04-.16.21-.41.2-.28.42-.56.68-.88.29-.36.41-.65.38-.92-.08-.45-.38-.68-.85-.68-.3-.03-.68.04-1.12.21-.45.16-.91.37-1.38.61-.51.26-.96.5-1.36.74-.21.12-.39.24-.54.34l.8-1.42c.56-.41,1.03-.73,1.41-.96.23-.15.45-.3.67-.46,2.2-1.34,3.69-2.47,4.41-3.35.53-.64.77-1.12.72-1.48-.02-.16-.1-.29-.23-.39-.23-.17-.53-.21-.89-.09-.33.1-.68.25-1.04.46-.31.2-.65.44-1.03.69l-.15.1c-.42.29-.86.66-1.33,1.1-.59.56-1.17,1.19-1.72,1.86-.54.65-1.02,1.31-1.44,1.99l-.15.1c-.24.16-.47.31-.68.46-.28.18-.54.34-.81.49-.02.01-.03.04-.04.05-.37.22-.78.44-1.26.66-.58.27-1.16.53-1.75.78l-.12.02.16-.24c.29-.45.45-.84.49-1.22.04-.38-.14-.72-.53-.97-.33-.16-.76-.11-1.26.15-.45.23-.95.56-1.48.95.01-.08.02-.17.02-.26v-.45c0-.1-.04-.28-.31-.32h-.03c-.12,0-.28.05-.4.28-.04.1-.12.21-.23.32,0,0-.02,0-.03,0-.07.05-.25.18-.71.45-.37.22-.78.45-1.2.67-.41.22-.81.41-1.23.58-.36.15-.63.21-.78.13-.12-.04-.13-.21-.03-.48.1-.32.31-.59.62-.8.17-.13.2-.32.08-.51-.07-.12-.18-.15-.25-.15-.12,0-.25.07-.41.19l-.08.06c-.1.07-.21.15-.33.24,0-.05-.02-.09-.04-.11-.09-.18-.26-.33-.52-.47-.25-.13-.54-.2-.86-.2-.47,0-.94.14-1.41.41-.22.13-.43.28-.62.43-.13.07-.27.14-.44.21-.41.18-.86.38-1.34.6-.46.2-.93.4-1.44.58-.44.16-.87.3-1.33.43-.41.11-.73.16-.97.16-.2,0-.31-.05-.33-.15,0-.28.12-.56.37-.84.25-.29.49-.53.7-.72.06-.01.09-.04.11-.07.05-.08.03-.19-.07-.39-.37-.51-.56-.95-.58-1.31l.86-.65c.49-.34.83-.61,1.03-.77.15-.12.33-.28.55-.46l.35-.28c.35-.3.54-.57.6-.83.04-.17.02-.29-.04-.38-.05-.08-.13-.12-.24-.13-.24-.03-.55.03-.97.19-.39.15-.78.36-1.17.63-.37.27-.72.59-1.04.96-.31.38-.51.78-.58,1.19l-.06.19-.43.29c-.21.14-.39.27-.56.38-.21.14-.4.27-.57.38l-.15.1c-.08,0-.16.03-.23.11-.09.07-.2.15-.3.22,0,0-.02.01-.03.02-.17.1-.31.2-.43.3,0,0,0,.01-.01.02-.25.17-.5.34-.78.51-.62.4-1.31.82-2.05,1.27-.3.18-.61.36-.93.55-.47.28-.95.57-1.45.86-.89.53-1.72,1.03-2.52,1.53l-.57.38c.98-1.25,1.73-2.33,2.25-3.2.59-.99,1.06-1.79,1.41-2.39.05-.08.14-.3-.15-.49-.09-.05-.16-.07-.23-.07s-.18.03-.24.13c-.39.38-.77.75-1.18,1.12-.45.41-.89.77-1.31,1.06-.45.33-.83.56-1.17.71-.3.14-.51.17-.64.04-.09-.08-.18-.21-.03-.49.13-.25.36-.52.71-.81.13-.11.28-.21.43-.32.15-.09.29-.17.4-.25.01-.01.01-.02.02-.03.15-.1.3-.19.48-.29.57-.3,1.17-.57,1.81-.79.19-.09.29-.26.29-.47v-.05c-.08-.14-.24-.21-.48-.21h-.04c-.52.22-1.06.47-1.61.75-.37.19-.72.4-1.05.62-.18.11-.4.23-.69.37-.44.21-.89.39-1.33.54-.41.15-.83.28-1.34.42-.29.07-.54.11-.74.11.08-.07.16-.17.26-.3.2-.25.39-.53.56-.84.16-.3.28-.62.35-.93.07-.33.02-.62-.16-.85-.11-.1-.18-.15-.23-.16-.06-.02-.12-.03-.19-.03-.04,0-.08,0-.12,0-.28,0-.58.12-.89.36-.18.13-.34.29-.49.46,0-.02-.01-.04-.02-.06-.01-.1-.09-.2-.27-.2-.12,0-.23.02-.28.05-.28.11-.61.28-.97.54-.27.19-.5.41-.72.65-.1.05-.2.1-.31.16-.53.24-1.11.47-1.72.69-.77.27-1.42.47-2.03.66-.74.22-1.36.36-1.92.43-.59.07-1.07.08-1.44.02-.34-.05-.51-.2-.53-.44,0-.19.08-.45.22-.77.14-.32.29-.57.46-.77.95-.48,1.87-1.04,2.75-1.68.89-.64,1.75-1.31,2.57-1.99.51,0,1.05.01,1.65.04.62.03,1.16.06,1.67.1.1.04.2.04.29.04.25,0,.4-.06.44-.2.04-.17-.04-.32-.2-.42l-.27-.08-2.76-.21c.5-.45.93-.86,1.28-1.23.39-.42.61-.77.67-1.09,0-.1-.04-.21-.11-.3-.08-.12-.2-.19-.37-.19-.24,0-.56.11-.99.33-.4.22-.83.48-1.27.79-.4.26-.81.56-1.29.92-.4.3-.71.55-.94.74-.84,0-1.72.02-2.77.06-.89.03-1.67.09-2.31.17-.1,0-.17.02-.23.04-.21.09-.25.24-.25.36,0,.22.15.34.38.3h.04c.14-.02.25-.04.3-.04.68-.07,1.33-.12,1.98-.12.64-.02,1.33-.03,2.03-.03-.67.65-1.2,1.2-1.64,1.68-.49.54-.89,1.03-1.18,1.45l-1.41.82-.02.02s0,0-.01.01c-.42.2-.83.36-1.25.5-.41.15-.84.28-1.34.42-.29.07-.54.11-.74.11.07-.08.16-.17.26-.3.2-.25.39-.53.56-.84.16-.3.28-.62.35-.93.07-.33.02-.62-.16-.85-.1-.1-.18-.15-.23-.16-.06-.02-.12-.03-.19-.03-.04,0-.08,0-.11,0-.28,0-.58.12-.89.36-.18.13-.34.29-.49.46,0-.02-.01-.04-.02-.06-.01-.1-.09-.2-.27-.2-.12,0-.23.02-.28.05-.29.11-.6.28-.97.54-.17.12-.32.25-.46.38-.26.17-.58.34-.95.51-.37.18-.75.35-1.14.53-.22.1-.43.2-.64.29-.16.08-.32.15-.47.22l-.21.09c-.26.12-.49.23-.69.3-.52.22-.73.26-.82.26h0c0-.05.04-.16.21-.42.18-.25.4-.54.67-.88.28-.35.41-.65.38-.92-.08-.45-.38-.68-.85-.68-.3-.03-.68.04-1.12.21-.44.16-.91.36-1.38.61-.53.27-.97.51-1.36.74-.21.12-.39.24-.54.34l.79-1.42c.57-.42,1.04-.74,1.41-.96.23-.15.45-.3.68-.46,2.2-1.34,3.69-2.47,4.41-3.35.53-.64.77-1.12.72-1.48-.02-.16-.1-.29-.23-.39-.23-.17-.53-.21-.89-.09-.34.1-.69.25-1.04.46-.32.21-.67.44-1.04.7l-.14.09c-.42.3-.86.67-1.32,1.1-.6.57-1.18,1.19-1.72,1.86-.53.63-1.01,1.3-1.45,1.99l-.15.1c-.24.16-.47.31-.68.46-.25.16-.52.33-.81.49-.02.01-.03.03-.04.05-.37.22-.78.44-1.26.66-.56.26-1.12.51-1.75.78l-.12.02.16-.24c.29-.45.45-.84.49-1.22.04-.38-.14-.72-.53-.97-.33-.16-.76-.11-1.27.15-.44.23-.95.56-1.48.95.01-.08.02-.17.02-.26v-.45c0-.1-.04-.28-.31-.32h-.03c-.12,0-.28.05-.4.28-.06.18-.25.37-.54.57-.3.21-.53.35-.68.43-.09.04-.14.09-.17.14-.19.11-.39.21-.57.3H3.76V4.02h184.02v68.67ZM135.23,72.05c.14-.2.3-.4.52-.59.31-.26.63-.4.95-.4.06,0,.12,0,.18.01-.03.09-.11.2-.23.3-.03.03-.08.05-.12.08-.02,0-.04-.01-.06-.01-.06,0-.13.02-.2.05-.27.18-.6.35-.97.52-.02.01-.05.02-.07.03ZM129.03,69.8c.4-.54.93-1.16,1.59-1.85.82-.85,1.8-1.62,2.9-2.3.51-.33.77-.46.9-.5.1-.03.17-.04.22-.04.02,0,.03,0,.03,0,.1.16-.12.45-.32.66-.35.37-.8.78-1.33,1.21-.54.45-1.12.88-1.78,1.33-.56.39-1.07.73-1.5,1.03l-.71.45ZM83.68,68.08c-.5.37-1,.72-1.51,1.06-.48.33-1.01.7-1.6,1.1.54-.59.94-1.01,1.24-1.29.32-.3.58-.54.79-.73l.16-.15h.91ZM83.56,67.34c.65-.5,1.2-.88,1.69-1.17.47-.29.88-.51,1.22-.67-.18.21-.41.45-.67.71-.38.36-.78.73-1.22,1.13h-1.01ZM63.98,69.8c.4-.55.94-1.17,1.6-1.85.82-.85,1.79-1.62,2.9-2.3.51-.33.77-.46.9-.5.1-.03.17-.04.22-.04.02,0,.03,0,.03,0,.09.16-.12.45-.32.66-.34.36-.79.77-1.33,1.21-.54.45-1.12.88-1.78,1.33l-1.67,1.15-.54.34Z"/>
    </g>
  </g>
</svg>