<?xml version="1.0" encoding="UTF-8"?>
<svg id="Layer_2" data-name="Layer 2" xmlns="http://www.w3.org/2000/svg" viewBox="0 0 262.61 93.18">
  <g id="Object">
    <g>
      <rect x="9.89" y="26.82" width="86.68" height=".9"/>
      <rect x="9.89" y="65.75" width="86.68" height=".9"/>
      <polygon points="20.19 43.6 20.19 35.27 17.49 35.27 17.49 36.18 19.25 36.18 19.25 43.6 20.19 43.6"/>
      <polygon points="28.37 43.6 28.37 35.27 25.66 35.27 25.66 36.18 27.43 36.18 27.43 43.6 28.37 43.6"/>
      <path d="M41.16,42.82c.4-.51.6-1.17.6-1.97v-5.57h-.94v5.54c0,.56-.1,1-.29,1.31-.29.44-.76.67-1.43.67-.55,0-1-.16-1.33-.47-.29-.26-.46-.57-.52-.94h-.98c.06.62.31,1.15.75,1.6.5.49,1.18.73,2.03.73.94,0,1.64-.29,2.11-.88Z"/>
      <path d="M50.52,43.6v-6.29h-.94v1.02c-.51-.75-1.24-1.12-2.19-1.12s-1.71.31-2.28.94c-.55.62-.83,1.39-.83,2.3s.28,1.68.83,2.3c.57.63,1.31.94,2.21.94,1,0,1.75-.37,2.25-1.11v1.01h.94ZM49.06,42.14c-.39.47-.93.7-1.61.7s-1.22-.23-1.64-.7c-.39-.44-.59-1.01-.59-1.69s.2-1.24.59-1.69c.42-.47.96-.7,1.64-.7s1.22.24,1.61.7c.38.45.57,1.01.57,1.69s-.19,1.24-.57,1.69Z"/>
      <path d="M58.96,43.6v-3.66c0-.84-.26-1.51-.78-2.03-.23-.23-.49-.41-.79-.53-.3-.12-.66-.18-1.08-.18s-.79.11-1.12.31c-.33.21-.6.47-.83.77v-.98h-.94v6.29h.94v-3.62c0-.56.18-1.02.55-1.38.37-.35.82-.53,1.35-.53s.94.17,1.27.52c.33.34.49.81.49,1.38v3.64h.94Z"/>
      <path d="M61.67,37.31v3.66c0,.84.26,1.51.78,2.03.23.23.49.41.79.53.3.12.66.18,1.08.18s.79-.1,1.12-.31c.33-.21.6-.47.83-.77v.98h.94v-6.29h-.94v3.62c0,.56-.18,1.02-.55,1.38-.37.35-.82.53-1.35.53s-.94-.17-1.27-.52c-.33-.34-.49-.8-.49-1.38v-3.64h-.94Z"/>
      <path d="M75.96,43.6v-6.29h-.94v1.02c-.51-.75-1.24-1.12-2.19-1.12s-1.71.31-2.28.94c-.55.62-.83,1.39-.83,2.3s.28,1.68.83,2.3c.57.63,1.31.94,2.21.94,1,0,1.75-.37,2.25-1.11v1.01h.94ZM74.5,42.14c-.39.47-.93.7-1.61.7s-1.22-.23-1.64-.7c-.39-.44-.59-1.01-.59-1.69s.2-1.24.59-1.69c.42-.47.96-.7,1.64-.7s1.22.24,1.61.7c.38.45.57,1.01.57,1.69s-.19,1.24-.57,1.69Z"/>
      <path d="M78.85,37.31v6.29h.94v-2.77c0-.72.2-1.34.6-1.86.43-.55.98-.82,1.66-.82h.11v-.94h-.06c-.39,0-.73.07-1.01.2-.67.31-1.11.79-1.31,1.45v-1.55h-.94Z"/>
      <polygon points="86.12 46.09 89.85 37.31 88.81 37.31 86.75 42.47 84.73 37.31 83.68 37.31 86.25 43.52 85.1 46.09 86.12 46.09"/>
      <path d="M40.12,56.34c.34-.25.69-.5,1.08-.76.38-.26.74-.54,1.06-.83.33-.29.6-.61.81-.94.21-.33.32-.68.32-1.04,0-.74-.25-1.33-.74-1.79-.52-.47-1.22-.71-2.1-.71-.77,0-1.43.22-1.97.65-.55.44-.85,1.01-.92,1.71h.94c.07-.47.27-.83.62-1.08.35-.25.81-.37,1.39-.37s1.03.14,1.35.42c.32.28.48.66.48,1.14,0,.32-.12.62-.35.89-.23.28-.52.55-.87.82-.35.27-.72.53-1.13.8-.4.26-.78.54-1.13.84-.35.3-.64.62-.87.96-.23.34-.35.71-.35,1.13v.52h5.6v-.91h-4.48c.02-.24.15-.48.38-.72.23-.24.51-.48.85-.73Z"/>
      <path d="M48.75,58.8c1.95,0,2.92-1.42,2.92-4.26,0-1.25-.2-2.23-.59-2.93-.49-.87-1.27-1.32-2.33-1.33-1.95,0-2.92,1.42-2.92,4.26s.97,4.26,2.92,4.26ZM47.24,52.02c.31-.55.81-.83,1.51-.83s1.2.28,1.51.83c.31.55.47,1.39.47,2.52,0,.39-.03.78-.08,1.17-.16,1.43-.79,2.15-1.9,2.18-.7,0-1.2-.28-1.51-.83-.31-.55-.47-1.39-.47-2.52s.16-1.96.47-2.52Z"/>
      <polygon points="57.87 58.7 57.87 50.37 55.16 50.37 55.16 51.28 56.93 51.28 56.93 58.7 57.87 58.7"/>
      <path d="M62.55,55c-.29.39-.43.83-.43,1.31,0,.75.26,1.35.78,1.8.53.46,1.26.69,2.2.69s1.67-.23,2.2-.69c.25-.22.44-.48.58-.79.13-.31.2-.67.2-1.09s-.14-.83-.43-1.23c-.29-.39-.68-.69-1.17-.88.13-.05.28-.13.43-.23.56-.35.84-.86.84-1.52,0-.63-.23-1.14-.68-1.52-.45-.39-1.11-.58-1.98-.58s-1.52.19-1.98.58c-.45.39-.68.89-.68,1.52,0,.45.14.84.43,1.17.24.27.52.46.84.58-.5.19-.88.49-1.17.88ZM63.39,52.43c0-.41.16-.72.48-.94.32-.21.73-.32,1.23-.32s.91.11,1.23.32c.32.21.48.53.48.94s-.19.74-.57.98c-.32.2-.7.3-1.14.3s-.84-.11-1.19-.33c-.35-.22-.52-.54-.52-.95ZM63.67,55.03c.38-.29.86-.44,1.43-.44s1.06.15,1.43.44c.4.33.6.75.6,1.27s-.18.88-.55,1.17c-.36.29-.86.43-1.49.43s-1.13-.14-1.49-.43c-.36-.29-.55-.68-.55-1.19s.2-.92.6-1.25Z"/>
      <rect x="181.67" y="26.82" width="70.78" height=".9"/>
      <rect x="181.67" y="65.75" width="70.78" height=".9"/>
      <polygon points="201.55 43.6 201.55 35.27 200.61 35.27 200.61 38.97 195.76 38.97 195.76 35.27 194.82 35.27 194.82 43.6 195.76 43.6 195.76 39.89 200.61 39.89 200.61 43.6 201.55 43.6"/>
      <path d="M210.38,43.6v-6.29h-.94v1.02c-.51-.75-1.24-1.12-2.19-1.12s-1.71.31-2.28.94c-.55.62-.83,1.39-.83,2.3s.28,1.68.83,2.3c.57.63,1.31.94,2.21.94,1,0,1.75-.37,2.25-1.11v1.01h.94ZM208.92,42.14c-.39.47-.93.7-1.61.7s-1.22-.23-1.64-.7c-.39-.44-.59-1.01-.59-1.69s.2-1.24.59-1.69c.42-.47.96-.7,1.64-.7s1.22.24,1.61.7c.38.45.57,1.01.57,1.69s-.19,1.24-.57,1.69Z"/>
      <path d="M218.67,38.15c-.56-.63-1.3-.94-2.2-.94-1,0-1.75.37-2.25,1.11v-1.01h-.94v8.78h.94v-3.51c.51.75,1.24,1.12,2.19,1.12s1.7-.31,2.26-.94c.56-.62.84-1.39.84-2.3s-.28-1.68-.84-2.3ZM217.98,42.14c-.42.47-.96.7-1.64.7s-1.22-.23-1.61-.7c-.38-.44-.57-1.01-.57-1.69s.19-1.24.57-1.69c.39-.47.93-.7,1.61-.7s1.22.24,1.64.7c.39.45.59,1.01.59,1.69s-.2,1.24-.59,1.69Z"/>
      <path d="M222.95,42.58c.51.75,1.24,1.12,2.19,1.12s1.7-.31,2.26-.94c.56-.62.84-1.39.84-2.3s-.28-1.68-.84-2.3c-.56-.63-1.3-.94-2.2-.94-1,0-1.75.37-2.25,1.11v-1.01h-.94v8.78h.94v-3.51ZM223.46,38.77c.39-.47.93-.7,1.61-.7s1.22.24,1.64.7c.39.45.59,1.01.59,1.69s-.2,1.24-.59,1.69c-.42.47-.96.7-1.64.7s-1.22-.23-1.61-.7c-.38-.44-.57-1.01-.57-1.69s.19-1.24.57-1.69Z"/>
      <polygon points="232.32 46.09 236.04 37.31 235.01 37.31 232.95 42.47 230.92 37.31 229.88 37.31 232.44 43.51 231.3 46.09 232.32 46.09"/>
      <polygon points="198.66 58.7 198.66 50.37 197.56 50.37 194.63 54.32 191.65 50.37 190.55 50.37 190.55 58.7 191.5 58.7 191.5 51.8 194.63 55.77 197.71 51.8 197.71 58.7 198.66 58.7"/>
      <path d="M207.49,58.7v-6.29h-.94v1.02c-.51-.75-1.24-1.12-2.19-1.12s-1.71.31-2.28.94c-.55.62-.83,1.39-.83,2.3s.28,1.68.83,2.3c.57.63,1.31.94,2.21.94,1,0,1.75-.37,2.25-1.11v1.01h.94ZM206.03,57.24c-.39.47-.93.7-1.61.7s-1.22-.23-1.64-.7c-.39-.44-.59-1.01-.59-1.69s.2-1.24.59-1.69c.42-.47.96-.7,1.64-.7s1.22.24,1.61.7c.38.45.57,1.01.57,1.69s-.19,1.24-.57,1.69Z"/>
      <path d="M211.32,55.93c0-.72.2-1.34.6-1.86.43-.55.98-.82,1.66-.82h.11v-.94h-.06c-.39,0-.73.07-1.01.2-.67.31-1.11.79-1.31,1.45v-1.55h-.94v6.29h.94v-2.77Z"/>
      <path d="M215.98,52.41v6.29h.94v-2.77c0-.72.2-1.34.6-1.86.43-.55.98-.82,1.66-.82h.11v-.94h-.06c-.39,0-.73.07-1.01.2-.67.31-1.11.79-1.31,1.45v-1.55h-.94Z"/>
      <rect x="221.58" y="52.41" width=".94" height="6.29"/>
      <rect x="221.54" y="50.12" width="1.02" height="1.23"/>
      <path d="M231.26,55.55c0-.93-.28-1.7-.83-2.3-.59-.63-1.35-.94-2.29-.94s-1.7.31-2.29.94c-.55.6-.83,1.37-.83,2.3s.29,1.69.87,2.3c.6.63,1.37.94,2.31.94.75,0,1.36-.18,1.83-.53.47-.35.82-.81,1.04-1.38h-1.03c-.37.7-.98,1.06-1.82,1.06-.62,0-1.13-.19-1.53-.58-.39-.38-.62-.86-.69-1.43h5.27v-.38ZM226,55.05c.08-.55.31-1,.68-1.35.39-.36.88-.54,1.46-.54s1.06.18,1.46.54c.37.34.6.79.68,1.35h-4.28Z"/>
      <path d="M239.53,58.7v-8.81h-.94v3.54c-.51-.75-1.24-1.12-2.19-1.12s-1.71.31-2.28.94c-.55.62-.83,1.39-.83,2.3s.28,1.68.83,2.3c.57.63,1.31.94,2.21.94,1,0,1.75-.37,2.25-1.11v1.01h.94ZM238.07,57.24c-.39.47-.93.7-1.61.7s-1.22-.23-1.64-.7c-.39-.44-.59-1.01-.59-1.69s.2-1.24.59-1.69c.42-.47.96-.7,1.64-.7s1.22.24,1.61.7c.38.45.57,1.01.57,1.69s-.19,1.24-.57,1.69Z"/>
      <path d="M118.75,52.7l5.04-5.83,12.59,19.35h4.12v17.33h10.21v-15.96s-.01-1.46-.01-1.46h5.26c9.01,0,16.08-5.26,17.84-12.77.28-1.19.43-2.42.43-3.71h-.03c.01-.28.03-.55.03-.84,0-10.43-7.05-18.27-16.47-18.27h-17.27v23.21h10.21v-12.99h7.05c.21,0,6.33.07,6.33,8.06,0,.31-.03.56-.04.84h-.03c0,.21-.08,6.24-7.91,6.32h-15.7l-10.52-16.31,19.42-23.6h-12.73l-17.85,21.08v-21.08h-10.14v50.15h10.14v-13.52Z"/>
      <path d="M0,0v93.18h262.61V0H0ZM260.47,91.04H2.14V2.14h258.33v88.9Z"/>
      <path d="M258.58,3.72H4.03v85.6h254.56V3.72ZM257.72,88.46H4.88V4.57h252.84v83.89Z"/>
    </g>
  </g>
</svg>