<?xml version="1.0" encoding="UTF-8"?>
<svg id="Layer_2" data-name="Layer 2" xmlns="http://www.w3.org/2000/svg" viewBox="0 0 236.79 102.36">
  <g id="Object">
    <g>
      <g>
        <path d="M77.32,22.88c-.76-.51-1.66-.9-2.67-1.15-1.03-.25-2.16-.38-3.36-.38h-6.65v13.01h6.65c2.55,0,4.63-.52,6.18-1.56,1.53-1.02,2.27-2.64,2.27-4.98,0-1.13-.22-2.13-.65-2.95-.43-.82-1.02-1.49-1.77-2ZM70.51,31.54h-1.44v-6.96h1.44c3.04,0,4.56,1.16,4.56,3.48s-1.52,3.48-4.56,3.48Z"/>
        <path d="M76.7,17.58c1.06-1.06,1.6-2.48,1.6-4.21s-.54-3.15-1.6-4.21c-1.06-1.06-2.86-1.6-5.35-1.6h-6.71v11.63h6.71c2.49,0,4.29-.54,5.35-1.6ZM69.07,15.89v-5.52h1.44c2,0,3,.92,3,2.76s-1,2.76-3,2.76h-1.44Z"/>
        <path d="M86.91,24.11c-.5-1.16-1.05-2.12-1.65-2.88-.72-.88-1.52-1.6-2.4-2.16.56-.48,1.06-1.08,1.5-1.8.36-.6.7-1.35,1.02-2.25.32-.9.48-1.99.48-3.27,0-1.8-.33-3.37-.99-4.71-.66-1.34-1.58-2.46-2.76-3.36-1.18-.9-2.6-1.58-4.26-2.04-1.66-.46-3.49-.69-5.49-.69h-15.65v40h16.31c2.24,0,4.27-.29,6.09-.87,1.82-.58,3.36-1.42,4.62-2.52,1.26-1.1,2.23-2.43,2.91-3.99.68-1.56,1.02-3.3,1.02-5.22,0-1.68-.25-3.1-.75-4.26ZM79.39,34.15c-1.74,1.57-4.44,2.37-8.04,2.37h-9V5.39h9c2.83,0,5.1.67,6.76,2,1.68,1.35,2.53,3.36,2.53,5.98,0,1.46-.29,2.68-.86,3.63-.56.94-1.21,1.69-1.92,2.23-.49.38-1.02.71-1.59.97.81.26,1.58.62,2.29,1.07.84.59,1.63,1.4,2.35,2.4h0c.74,1.04,1.12,2.43,1.12,4.14,0,2.61-.89,4.74-2.64,6.33Z"/>
      </g>
      <path d="M26.29,25.6C11.77,25.6,0,37.37,0,51.89s11.77,26.29,26.29,26.29,26.29-11.77,26.29-26.29-11.77-26.29-26.29-26.29ZM40.54,63.86c-.85.68-1.79,1.35-2.83,2.01-1.04.66-2.17,1.25-3.41,1.76-1.24.51-2.57.93-4,1.25-1.43.32-2.94.48-4.54.48-2.34,0-4.37-.26-6.07-.79-1.7-.53-3.1-1.25-4.2-2.17-1.1-.92-1.92-2-2.45-3.26-.53-1.26-.79-2.62-.79-4.08,0-2.07.47-3.81,1.4-5.22.93-1.41,2.17-2.61,3.7-3.59-.78-.85-1.43-1.84-1.94-2.96-.51-1.12-.76-2.34-.76-3.67,0-1.43.27-2.75.82-3.98.54-1.22,1.29-2.28,2.24-3.16.95-.88,2.07-1.57,3.36-2.06,1.29-.49,2.68-.74,4.18-.74,1.66,0,3.18.26,4.54.76,1.36.51,2.52,1.22,3.49,2.12.97.9,1.71,1.97,2.22,3.21.51,1.24.76,2.59.76,4.05,0,1.73-.46,3.25-1.38,4.54-.92,1.29-2.02,2.41-3.31,3.36l4.64,3.87c.41-.41.81-.83,1.2-1.27.39-.44.87-1.04,1.45-1.78l6.83,5.81c-.75,1.02-1.55,1.99-2.4,2.91-.85.92-1.77,1.78-2.75,2.6ZM37.94,59.17c-.61.58-1.26,1.1-1.94,1.58-1.19.85-2.65,1.62-4.38,2.32-1.73.7-3.72,1.05-5.96,1.05-.82,0-1.65-.09-2.5-.28-.85-.19-1.62-.49-2.32-.92-.7-.42-1.27-.99-1.73-1.71-.46-.71-.69-1.58-.69-2.6,0-1.46.42-2.64,1.27-3.54.85-.9,2.04-1.72,3.57-2.47l1.53-.76,7.95,6.63.97-.66-7.8-6.52c1.87-1.02,3.36-2.11,4.49-3.29,1.12-1.17,1.68-2.61,1.68-4.31,0-.88-.18-1.7-.54-2.45-.36-.75-.84-1.38-1.45-1.91-.61-.53-1.33-.93-2.17-1.22-.83-.29-1.73-.43-2.68-.43-.82,0-1.61.14-2.4.43-.78.29-1.48.7-2.09,1.22-.61.53-1.1,1.16-1.45,1.91-.36.75-.54,1.58-.54,2.5,0,1.26.34,2.37,1.02,3.34.68.97,1.6,1.93,2.75,2.88l1.27,1.07-1.22.61c-.75.37-1.45.79-2.11,1.25-.66.46-1.23.97-1.71,1.53-.48.56-.86,1.19-1.15,1.89-.29.7-.43,1.47-.43,2.32,0,1.12.24,2.11.71,2.96.48.85,1.1,1.55,1.89,2.09.78.54,1.68.95,2.7,1.22,1.02.27,2.07.41,3.16.41,2.34,0,4.43-.37,6.27-1.12,1.83-.75,3.4-1.58,4.69-2.5,1.5-1.05,2.84-2.28,4.03-3.67l-.97-.66c-.54.65-1.12,1.26-1.73,1.83ZM23.36,49.13c-1.36-1.12-2.24-2.1-2.65-2.93-.41-.83-.61-1.64-.61-2.42,0-1.43.48-2.6,1.43-3.52.95-.92,2.19-1.38,3.72-1.38.68,0,1.35.1,2.01.31.66.2,1.25.51,1.76.92.51.41.93.91,1.25,1.5.32.59.48,1.28.48,2.06,0,1.63-.51,2.93-1.53,3.9-1.02.97-2.45,1.93-4.28,2.88l-1.58-1.33ZM26.83,44.98c.34-.42.51-.93.51-1.5,0-1.26-.63-1.89-1.89-1.89-.58,0-1.04.18-1.4.54-.36.36-.54.81-.54,1.35,0,.48.11.93.33,1.35.22.43.65.93,1.3,1.5.78-.48,1.34-.93,1.68-1.35ZM22.85,58.36c0,.82.32,1.42.97,1.81.64.39,1.38.59,2.19.59.51,0,1.03-.04,1.55-.13.53-.09,1.03-.21,1.5-.38l-4.94-4.18c-.85.65-1.27,1.41-1.27,2.29Z"/>
      <rect x="25.2" y="1.52" width="2.18" height="26.54"/>
      <rect x="25.2" y="72.98" width="2.18" height="29.38"/>
      <g>
        <path d="M185.38,83.88v-6.23h2.76c.56,0,.98.06,1.27.17.29.11.52.31.69.59s.26.6.26.94c0,.44-.14.81-.43,1.12-.29.3-.73.5-1.33.58.22.1.38.21.5.31.24.22.47.5.68.83l1.08,1.7h-1.04l-.82-1.3c-.24-.37-.44-.66-.6-.86-.16-.2-.3-.34-.42-.42-.12-.08-.25-.13-.38-.17-.09-.02-.25-.03-.46-.03h-.96v2.77h-.82ZM186.2,80.4h1.77c.38,0,.67-.04.88-.12.21-.08.37-.2.48-.37.11-.17.17-.36.17-.56,0-.29-.11-.54-.32-.73-.21-.19-.55-.28-1.01-.28h-1.97v2.06Z"/>
        <path d="M195.17,82.43l.79.1c-.12.46-.36.82-.69,1.08s-.77.38-1.29.38c-.66,0-1.18-.2-1.57-.61-.39-.41-.58-.98-.58-1.71s.2-1.35.59-1.77c.39-.42.9-.63,1.52-.63s1.1.21,1.48.62c.38.41.57.99.57,1.73,0,.05,0,.11,0,.2h-3.37c.03.5.17.88.42,1.14.25.26.57.4.94.4.28,0,.52-.07.72-.22.2-.15.36-.38.47-.71ZM192.65,81.19h2.52c-.03-.38-.13-.66-.29-.85-.24-.29-.56-.44-.95-.44-.35,0-.65.12-.89.35-.24.24-.37.55-.4.94Z"/>
        <path d="M197.13,82.53l.76-.12c.04.3.16.54.35.7s.47.24.81.24.61-.07.78-.21.25-.31.25-.5c0-.17-.08-.31-.23-.41-.1-.07-.37-.15-.78-.26-.56-.14-.95-.26-1.17-.37-.22-.1-.38-.25-.49-.43-.11-.18-.17-.38-.17-.61,0-.2.05-.39.14-.56.09-.17.22-.31.38-.43.12-.09.28-.16.49-.22.21-.06.43-.09.66-.09.35,0,.67.05.93.15s.47.24.59.41c.13.17.22.41.26.7l-.75.1c-.03-.23-.13-.41-.3-.54-.16-.13-.39-.2-.69-.2-.35,0-.6.06-.75.17s-.23.25-.23.41c0,.1.03.19.09.27.06.08.16.15.29.2.08.03.3.09.68.2.54.14.92.26,1.13.35.21.09.38.23.5.4.12.18.18.39.18.65s-.07.5-.22.72c-.15.23-.36.4-.64.52-.28.12-.6.18-.95.18-.59,0-1.03-.12-1.34-.37-.31-.24-.5-.61-.59-1.08Z"/>
        <path d="M203.98,83.2l.11.68c-.22.05-.41.07-.58.07-.28,0-.49-.04-.65-.13-.15-.09-.26-.2-.32-.35-.06-.14-.09-.44-.09-.9v-2.6h-.56v-.59h.56v-1.12l.76-.46v1.58h.77v.59h-.77v2.64c0,.22.01.36.04.42.03.06.07.11.13.15.06.04.15.06.26.06.08,0,.2-.01.34-.03Z"/>
        <path d="M208.2,83.32c-.28.24-.56.41-.82.51-.26.1-.54.15-.84.15-.5,0-.88-.12-1.14-.36-.27-.24-.4-.55-.4-.93,0-.22.05-.42.15-.61s.23-.33.4-.44c.16-.11.35-.19.55-.25.15-.04.38-.08.68-.11.62-.07,1.07-.16,1.36-.26,0-.1,0-.17,0-.2,0-.31-.07-.53-.22-.66-.2-.17-.49-.26-.87-.26-.36,0-.63.06-.8.19-.17.13-.3.35-.38.67l-.75-.1c.07-.32.18-.58.34-.78.16-.2.38-.35.68-.45.29-.11.64-.16,1.02-.16s.7.05.94.14c.24.09.42.2.53.34.11.14.19.31.24.52.03.13.04.37.04.71v1.02c0,.71.02,1.16.05,1.35s.1.37.19.54h-.8c-.08-.16-.13-.34-.15-.56ZM208.14,81.61c-.28.11-.69.21-1.25.29-.31.05-.54.1-.67.15-.13.06-.23.14-.3.25-.07.11-.11.23-.11.36,0,.2.08.37.23.51.15.14.38.2.68.2s.56-.06.79-.19c.23-.13.4-.31.51-.53.08-.17.12-.43.12-.77v-.28Z"/>
        <path d="M213.58,83.88v-.66c-.35.51-.83.77-1.43.77-.27,0-.52-.05-.75-.15-.23-.1-.4-.23-.51-.38-.11-.15-.19-.34-.24-.57-.03-.15-.05-.39-.05-.71v-2.8h.77v2.5c0,.4.02.67.05.81.05.2.15.36.31.47.16.11.35.17.58.17s.44-.06.65-.18c.2-.12.34-.28.43-.48.08-.2.13-.5.13-.88v-2.42h.77v4.51h-.68Z"/>
        <path d="M215.97,83.88v-4.51h.69v.68c.18-.32.34-.53.49-.63.15-.1.31-.15.49-.15.26,0,.52.08.79.25l-.26.71c-.19-.11-.37-.17-.56-.17-.17,0-.32.05-.45.15-.13.1-.23.24-.28.42-.08.27-.13.57-.13.89v2.36h-.77Z"/>
        <path d="M222.35,83.32c-.28.24-.56.41-.82.51-.26.1-.54.15-.84.15-.5,0-.88-.12-1.14-.36-.27-.24-.4-.55-.4-.93,0-.22.05-.42.15-.61s.23-.33.4-.44c.16-.11.35-.19.55-.25.15-.04.38-.08.68-.11.62-.07,1.07-.16,1.36-.26,0-.1,0-.17,0-.2,0-.31-.07-.53-.22-.66-.2-.17-.49-.26-.87-.26-.36,0-.63.06-.8.19-.17.13-.3.35-.38.67l-.75-.1c.07-.32.18-.58.34-.78.16-.2.38-.35.68-.45.29-.11.64-.16,1.02-.16s.7.05.94.14c.24.09.42.2.53.34.11.14.19.31.24.52.03.13.04.37.04.71v1.02c0,.71.02,1.16.05,1.35.03.19.1.37.19.54h-.8c-.08-.16-.13-.34-.15-.56ZM222.29,81.61c-.28.11-.69.21-1.25.29-.31.05-.54.1-.67.15-.13.06-.23.14-.3.25-.07.11-.11.23-.11.36,0,.2.08.37.23.51.15.14.38.2.68.2s.56-.06.79-.19c.23-.13.4-.31.51-.53.08-.17.12-.43.12-.77v-.28Z"/>
        <path d="M224.77,83.88v-4.51h.69v.64c.33-.5.81-.74,1.44-.74.27,0,.52.05.75.15.23.1.4.23.51.38.11.16.19.35.24.57.03.14.04.39.04.74v2.78h-.77v-2.75c0-.31-.03-.54-.09-.7-.06-.15-.17-.28-.32-.37s-.33-.14-.53-.14c-.33,0-.61.1-.84.31-.24.21-.35.6-.35,1.18v2.47h-.77Z"/>
        <path d="M231.8,83.2l.11.68c-.22.05-.41.07-.58.07-.28,0-.49-.04-.65-.13-.15-.09-.26-.2-.32-.35-.06-.14-.09-.44-.09-.9v-2.6h-.56v-.59h.56v-1.12l.76-.46v1.58h.77v.59h-.77v2.64c0,.22.01.36.04.42.03.06.07.11.13.15.06.04.15.06.26.06.08,0,.2-.01.34-.03Z"/>
      </g>
      <rect x="185.67" y="88.23" width="6.35" height=".73"/>
      <g>
        <path d="M77.32,83.23c-.76-.51-1.66-.9-2.67-1.15-1.03-.25-2.16-.38-3.36-.38h-6.65v13.01h6.65c2.55,0,4.63-.52,6.18-1.56,1.53-1.02,2.27-2.64,2.27-4.98,0-1.13-.22-2.13-.65-2.95-.43-.82-1.02-1.49-1.77-2ZM70.51,91.89h-1.44v-6.96h1.44c3.04,0,4.56,1.16,4.56,3.48s-1.52,3.48-4.56,3.48Z"/>
        <path d="M76.7,77.93c1.06-1.06,1.6-2.48,1.6-4.21s-.54-3.15-1.6-4.21c-1.06-1.06-2.86-1.6-5.35-1.6h-6.71v11.63h6.71c2.49,0,4.29-.54,5.35-1.6ZM69.07,76.24v-5.52h1.44c2,0,3,.92,3,2.76s-1,2.76-3,2.76h-1.44Z"/>
        <path d="M86.91,84.45c-.5-1.16-1.05-2.12-1.65-2.88-.72-.88-1.52-1.6-2.4-2.16.56-.48,1.06-1.08,1.5-1.8.36-.6.7-1.35,1.02-2.25.32-.9.48-1.99.48-3.27,0-1.8-.33-3.37-.99-4.71-.66-1.34-1.58-2.46-2.76-3.36-1.18-.9-2.6-1.58-4.26-2.04-1.66-.46-3.49-.69-5.49-.69h-15.65v40h16.31c2.24,0,4.27-.29,6.09-.87,1.82-.58,3.36-1.42,4.62-2.52,1.26-1.1,2.23-2.43,2.91-3.99.68-1.56,1.02-3.3,1.02-5.22,0-1.68-.25-3.1-.75-4.26ZM79.39,94.5c-1.74,1.57-4.44,2.37-8.04,2.37h-9v-31.13h9c2.83,0,5.1.67,6.76,2,1.68,1.35,2.53,3.36,2.53,5.98,0,1.46-.29,2.68-.86,3.63-.56.94-1.21,1.69-1.92,2.23-.49.38-1.02.71-1.59.97.81.26,1.58.62,2.29,1.07.84.59,1.63,1.4,2.35,2.4h0c.74,1.04,1.12,2.43,1.12,4.14,0,2.61-.89,4.74-2.64,6.33Z"/>
      </g>
      <path d="M90.36.96v40h13.55V.96h-13.55ZM98.28,36.52h-2.28V5.39h2.28v31.13Z"/>
      <path d="M131.58,24.76c-.54-1.36-1.2-2.58-1.98-3.66-.78-1.08-1.64-2.04-2.58-2.88-.94-.84-1.8-1.58-2.58-2.22-.78-.64-1.44-1.2-1.98-1.68-.54-.48-.81-.88-.81-1.2,0-.36.12-.64.36-.84.24-.2.52-.34.84-.42.32-.08.66-.13,1.02-.15.36-.02.66-.03.9-.03.44,0,.86.02,1.26.06.4.04.76.08,1.08.12.4.04.76.08,1.08.12V.78c-.84-.12-1.7-.24-2.58-.36-.76-.08-1.62-.17-2.58-.27-.96-.1-1.92-.15-2.88-.15-1.84,0-3.57.25-5.19.75-1.62.5-3.03,1.23-4.23,2.19-1.2.96-2.14,2.16-2.82,3.6-.68,1.44-1.02,3.1-1.02,4.98,0,1.68.28,3.17.84,4.47.56,1.3,1.27,2.47,2.13,3.51.86,1.04,1.78,1.96,2.76,2.76.98.8,1.9,1.53,2.76,2.19.86.66,1.57,1.26,2.13,1.8.56.54.84,1.07.84,1.59,0,1.36-.92,2.04-2.76,2.04-1.04,0-2.07-.06-3.09-.18-1.02-.12-1.93-.28-2.73-.48-.96-.16-1.88-.38-2.76-.66v11.99c.96.28,2.02.52,3.18.72,1,.2,2.15.37,3.45.51,1.3.14,2.71.21,4.23.21,2.52,0,4.7-.33,6.54-.99,1.84-.66,3.35-1.56,4.53-2.7,1.18-1.14,2.05-2.48,2.61-4.02.56-1.54.84-3.19.84-4.95s-.27-3.2-.81-4.56ZM125.97,32.52c-.52.99-1.24,1.8-2.12,2.43-.87.62-1.87,1.08-2.97,1.35-1.08.27-2.21.4-3.35.4-.65,0-1.3-.03-1.92-.09-.63-.06-1.22-.13-1.79-.21-.63-.08-1.25-.18-1.82-.3l-.29-.06v-2.3l.44.09c.55.12,1.12.22,1.71.29,1.1.2,2.33.3,3.67.3,2.19,0,3.92-.48,5.15-1.42,1.22-.94,1.81-2.27,1.81-4.09,0-.97-.27-1.91-.82-2.81-.56-.93-1.29-1.85-2.16-2.72-.89-.89-1.85-1.78-2.86-2.65-1.02-.88-2-1.81-2.9-2.75-.92-.96-1.68-1.95-2.27-2.94-.61-1.03-.92-2.15-.92-3.33,0-2.19.76-3.84,2.25-4.88,1.45-1.02,3.32-1.54,5.54-1.54.37,0,.72,0,1.07.03.35.02.67.05.96.09.3.04.58.06.85.06h.36v2.28h-.36c-.34,0-.67-.02-1.01-.06-.31-.04-.63-.07-.97-.09-2.39-.14-4.19.22-5.17,1.05-.84.71-1.25,1.71-1.25,3.05,0,.88.27,1.76.81,2.59.56.87,1.29,1.76,2.17,2.64.9.9,1.86,1.79,2.86,2.65,1.02.88,2,1.82,2.91,2.79.91.97,1.68,2.01,2.27,3.07.61,1.09.92,2.26.92,3.48,0,1.41-.27,2.63-.79,3.62Z"/>
      <path d="M131.02.96v10.49h7.38v29.5h13.19V11.45h7.38V.96h-27.94ZM154.71,7.56h-8.57v28.96h-2.28V7.56h-8.57v-2.16h19.43v2.16Z"/>
      <g>
        <path d="M184.8,16.43c0-2.83-.99-5.03-2.95-6.55-1.98-1.54-4.79-2.32-8.32-2.32h-4.55v17.68h4.55c3.54,0,6.34-.77,8.32-2.29,1.95-1.5,2.95-3.69,2.95-6.52ZM178.36,19.61c-1.06.68-2.35,1.02-3.87,1.02h-.66v-8.87h.66c1.52,0,2.81.34,3.87,1.02,1.06.68,1.59,1.82,1.59,3.42s-.53,2.74-1.59,3.42Z"/>
        <path d="M187.32,27.76c1-.72,1.9-1.6,2.7-2.64.68-.92,1.3-2.08,1.86-3.48.56-1.4.84-3.1.84-5.1,0-2.52-.45-4.75-1.35-6.69-.9-1.94-2.15-3.57-3.75-4.89-1.6-1.32-3.49-2.32-5.67-3-2.18-.68-4.55-1.02-7.11-1.02h-13.79v40h12.77v-10.13l6,10.13h14.99l-7.5-13.19ZM186.28,36.52h-2.7l-5.67-9.55c-1.42.29-2.89.43-4.38.43h-4.55v9.11h-2.28V5.39h6.84c1.9,0,3.69.24,5.32.7,1.64.47,3.08,1.18,4.29,2.1,1.22.93,2.19,2.09,2.89,3.45.7,1.37,1.06,2.98,1.06,4.78,0,2.59-.67,4.74-2,6.37-1.23,1.52-2.88,2.69-4.9,3.47l6.1,10.25Z"/>
      </g>
      <g>
        <path d="M235.14,12.83c-1.1-2.56-2.6-4.79-4.5-6.69-1.9-1.9-4.13-3.4-6.69-4.5-2.56-1.1-5.28-1.65-8.16-1.65s-5.6.55-8.15,1.65c-2.56,1.1-4.79,2.6-6.69,4.5-1.9,1.9-3.4,4.13-4.5,6.69-1.1,2.56-1.65,5.28-1.65,8.16s.55,5.6,1.65,8.15c1.1,2.56,2.6,4.79,4.5,6.69,1.9,1.9,4.13,3.4,6.69,4.5,2.56,1.1,5.28,1.65,8.15,1.65s5.6-.55,8.16-1.65c2.56-1.1,4.79-2.6,6.69-4.5,1.9-1.9,3.4-4.13,4.5-6.69,1.1-2.56,1.65-5.28,1.65-8.15s-.55-5.6-1.65-8.16ZM230.29,27.1c-.81,1.89-1.95,3.58-3.37,5-1.42,1.43-3.11,2.56-5,3.37-1.89.82-3.95,1.23-6.11,1.23s-4.22-.41-6.11-1.23c-1.89-.81-3.58-1.95-5-3.37-1.43-1.42-2.56-3.11-3.38-5-.82-1.9-1.23-3.95-1.23-6.11s.41-4.21,1.23-6.11c.81-1.89,1.95-3.57,3.38-5,1.42-1.42,3.11-2.56,5-3.37,1.9-.82,3.95-1.23,6.11-1.23s4.21.41,6.11,1.23c1.89.81,3.57,1.95,5,3.37,1.43,1.43,2.56,3.11,3.37,5,.82,1.9,1.23,3.95,1.23,6.11s-.41,4.21-1.23,6.11Z"/>
        <path d="M225.29,11.5c-1.22-1.22-2.66-2.19-4.27-2.89-1.6-.7-3.36-1.05-5.22-1.05s-3.62.35-5.22,1.05c-1.61.7-3.04,1.67-4.27,2.89-1.22,1.22-2.19,2.66-2.89,4.27-.7,1.61-1.05,3.36-1.05,5.22s.35,3.62,1.05,5.22c.7,1.61,1.67,3.04,2.89,4.27,1.22,1.22,2.66,2.19,4.26,2.89,1.6.7,3.36,1.05,5.22,1.05s3.62-.35,5.22-1.05c1.61-.7,3.05-1.67,4.27-2.89,1.22-1.22,2.19-2.66,2.89-4.27.7-1.61,1.05-3.36,1.05-5.22s-.35-3.62-1.05-5.22c-.7-1.61-1.67-3.04-2.89-4.27ZM223.54,24.26c-.44,1.02-1.04,1.91-1.8,2.67-.76.76-1.65,1.36-2.67,1.8-1.02.44-2.11.66-3.27.66s-2.25-.22-3.27-.66c-1.02-.44-1.91-1.04-2.67-1.8-.76-.76-1.36-1.65-1.8-2.67-.44-1.02-.66-2.11-.66-3.27s.22-2.25.66-3.27c.44-1.02,1.04-1.91,1.8-2.67.76-.76,1.65-1.36,2.67-1.8,1.02-.44,2.11-.66,3.27-.66s2.25.22,3.27.66c1.02.44,1.91,1.04,2.67,1.8.76.76,1.36,1.65,1.8,2.67.44,1.02.66,2.11.66,3.27s-.22,2.25-.66,3.27Z"/>
      </g>
      <g>
        <path d="M115.56,91.71l-8.83-23.14-8.83,23.14h17.66ZM109.43,88.89h-5.4l2.7-7.02,2.7,7.02Z"/>
        <path d="M111.53,61.31h-9.59l-15.17,40h12.59l1.32-3.6h12.11l1.32,3.6h12.59l-15.17-40ZM116.37,93.87h-19.29l-1.14,3h-2.46l11.85-31.13h2.78l11.85,31.13h-2.45l-1.14-3Z"/>
      </g>
      <g>
        <path d="M155.87,88.11c1-.72,1.9-1.6,2.7-2.64.68-.92,1.3-2.08,1.86-3.48.56-1.4.84-3.1.84-5.1,0-2.52-.45-4.75-1.35-6.69-.9-1.94-2.15-3.57-3.75-4.89-1.6-1.32-3.49-2.32-5.67-3-2.18-.68-4.55-1.02-7.11-1.02h-13.79v40h12.77v-10.13l6,10.13h14.99l-7.5-13.19ZM154.83,96.87h-2.7l-5.67-9.55c-1.42.29-2.89.43-4.38.43h-4.55v9.11h-2.28v-31.13h6.84c1.9,0,3.69.24,5.32.7,1.63.47,3.08,1.18,4.29,2.1,1.22.93,2.19,2.09,2.89,3.45.7,1.37,1.06,2.98,1.06,4.78,0,2.59-.67,4.74-2,6.37-1.23,1.52-2.88,2.69-4.9,3.47l6.1,10.25Z"/>
        <path d="M153.35,76.78c0-2.83-.99-5.03-2.95-6.55-1.98-1.54-4.79-2.32-8.32-2.32h-4.55v17.68h4.55c3.54,0,6.34-.77,8.32-2.29,1.95-1.5,2.95-3.69,2.95-6.52ZM146.9,79.96c-1.06.68-2.35,1.02-3.87,1.02h-.66v-8.87h.66c1.52,0,2.81.34,3.87,1.02,1.06.68,1.59,1.82,1.59,3.42s-.53,2.74-1.59,3.42Z"/>
      </g>
    </g>
  </g>
</svg>