<?xml version="1.0" encoding="UTF-8"?>
<svg id="Layer_2" data-name="Layer 2" xmlns="http://www.w3.org/2000/svg" viewBox="0 0 152.18 179.03">
  <g id="Object">
    <g>
      <path d="M151.11,0H1.07C.48,0,0,.48,0,1.07v176.89c0,.59.48,1.07,1.07,1.07h150.04c.59,0,1.07-.48,1.07-1.07V1.07c0-.59-.48-1.07-1.07-1.07ZM150.04,2.14v150.42H2.14V2.14h147.91ZM48.57,166.95c.12.3.18.64.18,1.01,0,1.23-.67,2.09-1.95,2.49-.39.13-.87.2-1.4.2h-4.45v-9.33h4.24c1.03,0,1.84.3,2.41.88.48.48.72,1.09.72,1.82s-.22,1.36-.65,1.8c.4.28.7.66.9,1.12ZM50.01,165.99c0-1.34.44-2.47,1.31-3.37.89-.93,2.04-1.4,3.42-1.4s2.53.47,3.42,1.4c.87.9,1.31,2.03,1.31,3.36s-.44,2.47-1.31,3.37c-.89.93-2.04,1.4-3.42,1.4s-2.53-.47-3.42-1.4c-.87-.9-1.31-2.03-1.31-3.37ZM63.72,168.33c.37.34.84.51,1.44.51s1.08-.17,1.46-.51c.43-.4.64-.97.64-1.73v-5.27h1.94v5.24c0,1.24-.38,2.25-1.13,3.02-.75.77-1.74,1.16-2.92,1.16s-2.15-.39-2.91-1.16c-.75-.77-1.13-1.79-1.13-3.02v-5.24h1.94v5.27c0,.76.21,1.33.65,1.74ZM70.57,163.23v-1.91h7.76v1.91h-2.91v7.42h-1.94v-7.42h-2.91ZM79.78,170.65v-9.33h1.94v9.33h-1.94ZM90.4,170.73c.17.06.37.09.61.09.43,0,.83-.15,1.21-.46l.41-.33,1.1,1.48-.38.3c-.67.53-1.46.8-2.35.8-.72,0-1.39-.2-2.01-.59-.53-.34-.95-.78-1.26-1.31-1.2-.11-2.21-.59-2.99-1.44-.83-.88-1.25-1.99-1.25-3.3s.44-2.47,1.31-3.37c.89-.93,2.04-1.4,3.42-1.4s2.53.47,3.42,1.4c.87.9,1.31,2.03,1.31,3.36,0,1.17-.36,2.2-1.07,3.07-.54.67-1.21,1.14-2,1.41.15.11.32.2.53.27ZM97.2,168.33c.37.34.84.51,1.44.51s1.08-.17,1.46-.51c.43-.4.64-.97.64-1.73v-5.27h1.94v5.24c0,1.24-.38,2.25-1.13,3.02-.75.77-1.74,1.16-2.92,1.16s-2.15-.39-2.91-1.16c-.75-.77-1.13-1.79-1.13-3.02v-5.24h1.94v5.27c0,.76.21,1.33.65,1.74ZM111.46,165.02v1.92h-4.63v1.81h5.18v1.91h-7.13v-9.33h7.13v1.91h-5.18v1.79h4.63Z"/>
      <path d="M88.21,163.14c-.85,0-1.52.27-2.04.81-.5.53-.74,1.2-.74,2.03s.24,1.5.74,2.03c.52.55,1.19.81,2.04.81s1.52-.27,2.04-.81c.5-.53.74-1.19.74-2.03s-.25-1.51-.74-2.03c-.52-.55-1.18-.81-2.04-.81Z"/>
      <path d="M56.78,168.02c.5-.53.74-1.19.74-2.03s-.25-1.51-.74-2.03c-.52-.55-1.18-.81-2.04-.81s-1.52.27-2.04.81c-.5.53-.74,1.2-.74,2.03s.24,1.5.74,2.03c.52.55,1.19.81,2.04.81s1.52-.27,2.04-.81Z"/>
      <path d="M45.41,166.9h-2.51v1.86h2.61c.46,0,.81-.09,1.03-.25.18-.14.27-.34.27-.62s-.09-.49-.29-.66c-.24-.22-.62-.33-1.11-.33Z"/>
      <path d="M46.29,164.53h0c.06-.12.09-.24.09-.38,0-.15-.02-.29-.06-.4-.03-.09-.09-.17-.16-.25-.19-.2-.46-.29-.87-.29h-2.39v1.83h2.29c.76,0,.99-.29,1.1-.51Z"/>
      <path d="M33.73,52.51l.43-.34c.04-.21,8.06-25.16,11.27-30.84,1.67-3.17,4.36-4.36,8.25-3.77l.73-6.03c-6.24-.9-11.37,1.54-14.28,6.84-1.93,3.41-7,17.16-9.09,23.45l-6.8-19.02h-6.41l10.69,29.84,5.21-.13Z"/>
      <rect x="54.04" y="47.26" width="14.28" height="5.39"/>
      <polygon points="54.04 27.63 57.98 27.63 57.98 46.4 64.05 46.4 64.05 27.63 68.32 27.63 68.32 22.25 54.04 22.25 54.04 27.63"/>
      <polygon points="86.53 34.98 96.1 52.65 101.92 52.65 102.35 52.43 102.35 22.76 96.32 22.76 96.32 40.37 86.7 22.76 80.5 22.76 80.5 52.65 86.53 52.65 86.53 34.98"/>
      <polygon points="113.36 95.34 132.89 95.34 132.89 89.27 119.43 89.27 119.43 84.72 128.45 84.72 128.45 78.73 109.82 78.73 109.82 84.72 113.36 84.72 113.36 95.34"/>
      <polygon points="119.43 77.64 119.43 70.88 132 70.88 132 64.9 113.36 64.9 113.36 77.64 119.43 77.64"/>
      <polygon points="18.6 71.4 27.67 71.4 27.67 95.34 33.74 95.34 33.74 71.4 42.84 71.4 42.84 65.33 18.6 65.33 18.6 71.4"/>
      <path d="M91.45,136.77c8.21,0,14.92-6.71,14.92-14.96s-6.71-14.92-14.92-14.92-14.96,6.67-14.96,14.92,6.71,14.96,14.96,14.96ZM91.45,112.96c4.87,0,8.89,3.97,8.89,8.85s-4.02,8.89-8.89,8.89-8.93-3.97-8.93-8.89,4.02-8.85,8.93-8.85Z"/>
      <rect x="109.82" y="34.8" width="23.24" height="5.81"/>
      <path d="M33.99,119c-.83-.31-1.72-.54-2.66-.69-.5-.08-1-.12-1.45-.16-.38-.03-.76-.06-1.14-.11-.43-.06-.85-.17-1.24-.34-.6-.25-1.13-.67-1.51-1.18-.37-.5-.58-1.08-.6-1.67v-.1c0-1.82,1.74-3.31,3.89-3.31,1.11,0,2.25.47,2.98,1.23.44.43,1.23,1.29,1.55,2.14l.05.13,5.2-2.47.1-.05-.03-.1c-1.24-3.81-5.29-6.47-9.85-6.47-5.66,0-10.27,3.99-10.27,8.89,0,.92.16,1.82.47,2.69.31.84.76,1.64,1.33,2.37.57.72,1.25,1.35,2.04,1.9.79.55,1.67.99,2.6,1.32.9.31,1.89.51,3.03.6.24.02.48.03.72.05h.1c.62.04,1.2.07,1.75.18.7.14,1.36.46,1.97.95.65.55,1.17,1.28,1.41,1.96.14.39.2.81.2,1.22,0,2.43-2.29,4.41-5.11,4.41-1.47,0-2.89-.56-3.89-1.53,0,0-.12-.12-.29-.33-.05-.07-.1-.13-.16-.21-.36-.47-1.02-1.46-1.35-2.74l-.04-.15-5.34,2.53.03.1c1.13,4.48,5.78,7.73,11.04,7.73,6.22,0,11.28-4.4,11.28-9.81,0-3.89-2.67-7.42-6.81-8.98Z"/>
      <polygon points="55.45 112.59 55.45 106.61 49.38 106.61 49.38 119.34 55.45 119.34 55.45 113.87 55.45 112.59"/>
      <polygon points="65.12 120.43 45.83 120.43 45.83 126.42 49.38 126.42 49.38 137.04 55.45 137.04 55.45 130.97 55.45 128.74 55.45 126.42 65.12 126.42 65.12 137.04 71.2 137.04 71.2 106.61 65.12 106.61 65.12 120.43"/>
      <path d="M91.4,95.27c5.73,0,11.01-2.87,13.42-8.63v-5.39h-14.28v5.39h6.83c-1.56,1.61-3.61,2.55-5.98,2.55-4.92,0-8.94-3.97-8.94-8.89s4.02-8.89,8.94-8.89c3.38,0,6.46,1.92,7.99,5l5.3-2.91c-2.56-5-7.69-8.12-13.3-8.12-8.25,0-14.92,6.67-14.92,14.92s6.71,14.96,14.92,14.96Z"/>
      <path d="M56.45,65.78s-7.07,22.11-10.62,29.71h26.86l-10.69-29.84-5.55.13ZM54.56,90.1c1.87-4.87,3.81-10.3,4.92-13.63l4.87,13.63h-9.79Z"/>
      <path d="M125.67,106.61h-12.31v30.43h6.07v-25.09h7.37c2.34.21,4.2,2.26,4.2,4.77s-1.71,4.41-3.93,4.75h-6.49v5.34h5.84c5.32,0,9.66-4.53,9.66-10.09,0-2.42-.84-4.81-2.4-6.66-1.49-1.77-3.66-3.08-5.99-3.35-.67-.08-1.34-.1-2.02-.1Z"/>
    </g>
  </g>
</svg>