<?xml version="1.0" encoding="UTF-8"?>
<svg id="Layer_2" data-name="Layer 2" xmlns="http://www.w3.org/2000/svg" viewBox="0 0 143.44 157.31">
  <g id="Object">
    <g>
      <path d="M14.91,150.37c-.42-.16-.85-.24-1.3-.24h-3.18v7.1h3.18c.45,0,.88-.08,1.3-.24.42-.16.79-.39,1.1-.7.71-.68,1.06-1.55,1.06-2.6s-.35-1.93-1.06-2.6c-.32-.31-.69-.54-1.1-.7ZM15.5,155.64c-.49.55-1.13.83-1.92.83h-2.29v-5.57h2.29c.79,0,1.43.28,1.92.83.48.53.72,1.18.72,1.96s-.24,1.43-.72,1.96Z"/>
      <polygon points="18.45 157.23 24 157.23 24 156.46 19.31 156.46 19.31 154.07 23.5 154.07 23.5 153.28 19.31 153.28 19.31 150.9 24 150.9 24 150.13 18.45 150.13 18.45 157.23"/>
      <path d="M30.16,153.95c-.24-.15-.52-.27-.83-.37-.31-.1-.63-.18-.95-.26-.32-.08-.64-.15-.95-.22-.31-.07-.59-.15-.83-.25-.24-.09-.44-.21-.59-.34-.15-.14-.22-.28-.22-.45s.02-.31.07-.46c.05-.14.15-.27.29-.39.14-.12.35-.22.61-.3.26-.08.58-.12.97-.12s.7.04.96.11c.73.19,1.13.58,1.21,1.17h.88c-.03-.57-.29-1.04-.76-1.4-.52-.41-1.26-.62-2.22-.62s-1.66.18-2.13.55c-.47.36-.71.84-.71,1.42,0,.41.13.73.38.97.25.24.57.43.96.58.38.15.8.27,1.24.36.44.09.86.19,1.24.3.38.11.7.24.96.41.25.16.38.39.38.67,0,.84-.71,1.25-2.12,1.25-.68,0-1.22-.11-1.63-.33-.47-.26-.72-.63-.75-1.11h-.89c.07.69.35,1.21.84,1.59.55.41,1.36.62,2.41.62.93,0,1.67-.17,2.19-.53.53-.35.79-.86.79-1.52,0-.56-.27-1-.81-1.32Z"/>
      <rect x="32.29" y="150.13" width=".85" height="7.1"/>
      <path d="M38.18,154.18h2.76c0,.71-.27,1.29-.82,1.73-.52.41-1.13.62-1.84.62-.89,0-1.6-.28-2.14-.83-.51-.52-.76-1.2-.76-2.03s.26-1.5.77-2.03c.25-.26.56-.46.92-.61.36-.15.8-.22,1.32-.22s.98.11,1.38.33c.41.22.72.52.95.91h.93c-.28-.61-.72-1.09-1.32-1.46-.29-.17-.61-.31-.97-.41-.36-.1-.78-.15-1.26-.15s-.96.09-1.41.28c-.46.19-.84.45-1.16.78-.68.69-1.01,1.54-1.01,2.57s.33,1.9.98,2.57c.32.33.71.59,1.16.78.45.19.91.28,1.37.28s.83-.04,1.11-.11c.77-.21,1.37-.62,1.8-1.23v1.25h.79v-3.77h-3.54v.73Z"/>
      <polygon points="48.87 156.1 44.21 150.13 43.22 150.13 43.22 157.23 44.08 157.23 44.08 151.24 48.74 157.23 49.73 157.23 49.73 150.13 48.87 150.13 48.87 156.1"/>
      <path d="M61.16,150.13l-3.2,7.1h.95l.92-2.06h3.74l.92,2.06h.95l-3.2-7.1h-1.07ZM60.16,154.43l1.54-3.46,1.54,3.46h-3.08Z"/>
      <path d="M71.6,154.16c.78-.32,1.17-.93,1.17-1.81,0-.69-.23-1.23-.69-1.62-.46-.4-1.08-.6-1.85-.6h-3.61v7.1h.85v-2.72h2.62l1.82,2.72h1.01l-1.98-2.86c.21-.04.43-.11.65-.2ZM70.08,153.75h-2.61v-2.85h2.65c.54,0,.97.13,1.3.39.33.26.49.62.49,1.07,0,.28-.06.51-.17.69-.3.47-.86.71-1.66.71Z"/>
      <polygon points="73.6 150.9 76.23 150.9 76.23 157.23 77.09 157.23 77.09 150.9 79.72 150.9 79.72 150.13 73.6 150.13 73.6 150.9"/>
      <path d="M89.43,154.18h2.76c0,.71-.27,1.29-.82,1.73-.52.41-1.13.62-1.84.62-.89,0-1.6-.28-2.14-.83-.51-.52-.76-1.2-.76-2.03s.26-1.5.77-2.03c.25-.26.56-.46.92-.61.36-.15.8-.22,1.32-.22s.98.11,1.38.33c.41.22.72.52.95.91h.93c-.28-.61-.72-1.09-1.32-1.46-.29-.17-.61-.31-.97-.41-.36-.1-.78-.15-1.26-.15s-.96.09-1.41.28c-.46.19-.84.45-1.16.78-.68.69-1.01,1.54-1.01,2.57s.33,1.9.98,2.57c.32.33.71.59,1.16.78.45.19.91.28,1.37.28s.83-.04,1.11-.11c.77-.21,1.37-.62,1.8-1.23v1.25h.79v-3.77h-3.54v.73Z"/>
      <path d="M96.79,150.13l-3.2,7.1h.95l.92-2.06h3.74l.92,2.06h.95l-3.2-7.1h-1.07ZM95.79,154.43l1.54-3.46,1.54,3.46h-3.08Z"/>
      <polygon points="103.1 150.13 102.25 150.13 102.25 157.23 107.21 157.23 107.21 156.46 103.1 156.46 103.1 150.13"/>
      <polygon points="109.4 150.13 108.54 150.13 108.54 157.23 113.51 157.23 113.51 156.46 109.4 156.46 109.4 150.13"/>
      <polygon points="114.84 157.23 120.39 157.23 120.39 156.46 115.7 156.46 115.7 154.07 119.89 154.07 119.89 153.28 115.7 153.28 115.7 150.9 120.39 150.9 120.39 150.13 114.84 150.13 114.84 157.23"/>
      <path d="M126.97,154.16c.78-.32,1.17-.93,1.17-1.81,0-.69-.23-1.23-.69-1.62-.46-.4-1.08-.6-1.85-.6h-3.61v7.1h.85v-2.72h2.62l1.82,2.72h1.01l-1.98-2.86c.21-.04.43-.11.65-.2ZM125.46,153.75h-2.61v-2.85h2.65c.54,0,.97.13,1.3.39.33.26.49.62.49,1.07,0,.28-.06.51-.17.69-.3.47-.86.71-1.66.71Z"/>
      <polygon points="132.34 153.58 129.79 150.13 128.75 150.13 131.92 154.42 131.92 157.23 132.77 157.23 132.77 154.42 135.93 150.13 134.89 150.13 132.34 153.58"/>
      <rect width="1" height="140.99"/>
      <rect x="142.44" width="1" height="140.99"/>
      <rect x="70.83" width="1" height="140.99"/>
      <path d="M24.71,60.97c3.35,1.48,6.76,2.23,10.14,2.23s6.08-.28,8.17-.85c4.88-1.4,8.89-4.03,11.95-7.82v8.01h7.14v-30.25h-26.9v7.05h19.75c-.17,4.85-2.06,8.83-5.6,11.83-3.55,3.02-7.83,4.56-12.75,4.56-6.12,0-11.1-2.04-14.8-6.05-3.5-3.81-5.27-8.83-5.27-14.93s1.8-11.06,5.36-14.93c1.71-1.87,3.85-3.36,6.36-4.43,2.51-1.07,5.6-1.61,9.18-1.61s6.77.8,9.55,2.39c2.78,1.59,4.98,3.81,6.54,6.62l.21.39h8.28l-.46-1.05c-2.07-4.74-5.35-8.59-9.76-11.44-2.12-1.34-4.52-2.41-7.13-3.19-2.62-.78-5.74-1.17-9.28-1.17s-7.08.75-10.43,2.23c-3.35,1.48-6.24,3.53-8.58,6.1-4.96,5.34-7.47,12.11-7.47,20.11s2.43,14.87,7.22,20.11c2.35,2.57,5.24,4.62,8.58,6.1Z"/>
      <path d="M107.59,63.19c8.23,0,15.09-2.8,20.39-8.31,5.18-5.35,7.81-12.12,7.81-20.12s-2.63-14.78-7.8-20.12c-5.3-5.52-12.16-8.32-20.39-8.32s-15.09,2.8-20.39,8.31c-5.18,5.35-7.81,12.12-7.81,20.12s2.63,14.78,7.8,20.12c5.3,5.52,12.16,8.32,20.39,8.32ZM92.53,19.84c3.81-4.02,8.88-6.06,15.06-6.06s11.25,2.04,15.06,6.06c3.66,3.87,5.51,8.89,5.51,14.92s-1.85,11.05-5.51,14.92c-3.81,4.02-8.87,6.06-15.06,6.06s-11.25-2.04-15.06-6.06c-3.66-3.87-5.51-8.88-5.51-14.92s1.85-11.05,5.51-14.92Z"/>
      <path d="M55.85,86.09c-5.3-5.52-12.16-8.32-20.39-8.32s-15.09,2.8-20.39,8.31c-5.18,5.35-7.81,12.12-7.81,20.12s2.63,14.78,7.8,20.12c5.3,5.52,12.16,8.32,20.39,8.32s15.09-2.8,20.39-8.31c5.18-5.35,7.81-12.12,7.81-20.12s-2.63-14.78-7.8-20.12ZM50.52,121.14c-3.81,4.02-8.87,6.06-15.06,6.06s-11.25-2.04-15.06-6.06c-3.66-3.87-5.51-8.88-5.51-14.92s1.85-11.05,5.51-14.92c3.81-4.02,8.88-6.06,15.06-6.06s11.25,2.04,15.06,6.06c3.66,3.87,5.51,8.89,5.51,14.92s-1.85,11.05-5.51,14.92Z"/>
      <path d="M116.53,132.11c3.08-1.26,5.83-3.12,8.17-5.52,5.18-5.29,7.81-12.15,7.81-20.37s-2.63-15.08-7.81-20.37c-2.35-2.4-5.1-4.26-8.17-5.52-3.07-1.26-6.3-1.89-9.6-1.89h-23.54v55.57h23.54c3.3,0,6.52-.64,9.6-1.89ZM91.02,126.7v-40.97h15.67c5.4,0,9.86,2.03,13.23,6.03,3.3,3.87,4.97,8.74,4.97,14.46s-1.67,10.59-4.97,14.46c-3.37,4-7.83,6.02-13.23,6.02h-15.67Z"/>
    </g>
  </g>
</svg>